<?xml version="1.0" encoding="UTF-8"?>
<svg version="1.1" xmlns="http://www.w3.org/2000/svg" width="512" height="512">
<path d="M0 0 C1.09183594 -0.01675781 2.18367187 -0.03351562 3.30859375 -0.05078125 C9.29480563 0.61754733 13.13952444 3.53226718 17.4375 7.5625 C18.30246094 8.36300781 19.16742188 9.16351563 20.05859375 9.98828125 C21.29802734 11.13876953 21.29802734 11.13876953 22.5625 12.3125 C23.86981675 13.46424355 25.18193926 14.61056761 26.5 15.75 C30.69414365 19.40187053 34.79344292 23.15516184 38.90234375 26.90234375 C41.74305983 29.47609092 44.61436253 32.0078481 47.5234375 34.50390625 C49.0851907 35.88913945 50.60369884 37.3232638 52.1015625 38.77734375 C52.97554687 39.61394531 53.84953125 40.45054688 54.75 41.3125 C55.54792969 42.09625 56.34585938 42.88 57.16796875 43.6875 C59.40538284 45.49870689 59.40538284 45.49870689 61.90625 45.4765625 C65.97229056 43.69468002 68.73675969 40.77534578 71.875 37.6875 C73.21795821 36.39891388 74.56169949 35.11114333 75.90625 33.82421875 C76.54304687 33.20981934 77.17984375 32.59541992 77.8359375 31.96240234 C80.37769144 29.53350343 83.02123103 27.23575339 85.68359375 24.94140625 C87.96027145 22.96765448 90.19906722 20.9545113 92.4375 18.9375 C93.27539062 18.18339844 94.11328125 17.42929687 94.9765625 16.65234375 C96.72753621 15.06800349 98.47216519 13.47662771 100.2109375 11.87890625 C108.82336282 4.00358039 114.25994932 -0.13119284 126.2890625 0.0546875 C135.1703595 0.75416913 140.50488564 6.70015047 146.68359375 12.578125 C148.9570435 14.73743955 151.25168207 16.82819604 153.625 18.875 C156.81494609 21.6405042 159.94342989 24.46725772 163.0625 27.3125 C166.91062516 30.8204594 170.77196659 34.30630321 174.71875 37.703125 C175.99095292 38.81360721 177.23993404 39.95106487 178.46875 41.109375 C179.0771875 41.67140625 179.685625 42.2334375 180.3125 42.8125 C180.84359375 43.3178125 181.3746875 43.823125 181.921875 44.34375 C183.53299765 45.50860029 183.53299765 45.50860029 185.5546875 45.14453125 C187.81423041 44.2081837 189.14679663 43.16511106 190.9375 41.5 C194.68978793 38.09009961 198.51177065 34.78257111 202.375 31.5 C207.75896817 26.9134162 213.00186413 22.21146339 218.16015625 17.37109375 C224.43153188 11.99708569 229.66730692 10.93148877 237.74609375 11.0390625 C244.67611193 11.7118798 248.99925194 15.21261198 253.3359375 20.43359375 C256.42705108 25.16870723 256.85143431 29.51665082 256.81976891 35.05814838 C256.82327498 35.83479598 256.82678105 36.61144358 256.83039337 37.41162595 C256.83972441 40.02361847 256.83477968 42.63538885 256.82992554 45.24739075 C256.83366094 47.1351649 256.83826202 49.02293751 256.84365618 50.91070765 C256.8559152 56.10590447 256.8556223 61.30103704 256.85326743 66.49624503 C256.85286 72.09623629 256.86389137 77.69620674 256.87338257 83.29618835 C256.89000937 94.27046385 256.89549287 105.24471787 256.89660732 116.21900491 C256.89755699 125.13758544 256.90166319 134.05615888 256.90800858 142.97473717 C256.92275784 164.13516259 256.93505782 185.29558288 256.93401146 206.45601368 C256.93396472 207.47124094 256.93396472 207.47124094 256.93391704 208.50697784 C256.93375083 211.93741957 256.93355274 215.36786131 256.93334763 218.79830305 C256.93330774 219.47960813 256.93326785 220.16091322 256.93322675 220.86286392 C256.93314587 222.2406291 256.93306228 223.61839429 256.93297596 224.99615947 C256.93175043 246.43244398 256.94676367 267.86866523 256.97412109 289.30493164 C257.00484029 313.38531363 257.02202835 337.46564319 257.02019465 361.54605025 C257.01953009 374.29731379 257.02505148 387.04850598 257.04655075 399.79975319 C257.06473702 410.65580693 257.06913088 421.51175699 257.0555319 432.36781935 C257.04898942 437.90802177 257.04893132 443.44802512 257.0662384 448.98820877 C257.08191741 454.05932572 257.0791584 459.13008488 257.06167014 464.20119282 C257.05858884 466.03630299 257.06227498 467.87143953 257.07339029 469.70651863 C257.08750093 472.20122163 257.07693408 474.69466782 257.06027794 477.18932819 C257.07518248 478.25784549 257.07518248 478.25784549 257.09038812 479.347949 C257.00251635 485.57377741 254.85191999 490.65943612 250.81640625 495.3359375 C250.25824219 495.78195312 249.70007813 496.22796875 249.125 496.6875 C248.56941406 497.14898437 248.01382812 497.61046875 247.44140625 498.0859375 C241.20348394 502.15809469 234.50273584 502.29360132 227.33984375 500.87109375 C219.59902163 498.10754791 213.88683387 491.41622063 208.11767578 485.81152344 C205.04333351 482.84818568 201.80698368 480.08561529 198.5625 477.3125 C197.55963098 476.42087072 196.55705146 475.52891577 195.5546875 474.63671875 C194.4745019 473.69468885 193.39377259 472.75328204 192.3125 471.8125 C191.55042236 471.12474487 191.55042236 471.12474487 190.77294922 470.4230957 C188.02101138 468.01702811 188.02101138 468.01702811 184.5625 467.2109375 C181.58191933 468.85258545 179.24481299 471.09472947 176.8125 473.4375 C175.73761914 474.44859744 174.66209825 475.45901491 173.5859375 476.46875 C172.80621582 477.20544922 172.80621582 477.20544922 172.01074219 477.95703125 C170.19003354 479.6611065 168.32318369 481.30580636 166.4375 482.9375 C163.49392136 485.4918451 160.58351428 488.07928838 157.6875 490.6875 C156.84703125 491.44417969 156.0065625 492.20085937 155.140625 492.98046875 C153.41668325 494.53985243 151.69794567 496.10500814 149.984375 497.67578125 C133.64377575 512.58783118 133.64377575 512.58783118 123.125 512.625 C122.03316406 512.64175781 120.94132813 512.65851562 119.81640625 512.67578125 C113.83019437 512.00745267 109.98547556 509.09273282 105.6875 505.0625 C104.82253906 504.26199219 103.95757812 503.46148437 103.06640625 502.63671875 C102.24011719 501.86972656 101.41382813 501.10273438 100.5625 500.3125 C99.25518325 499.16075645 97.94306074 498.01443239 96.625 496.875 C92.43085635 493.22312947 88.33155708 489.46983816 84.22265625 485.72265625 C81.38194017 483.14890908 78.51063747 480.6171519 75.6015625 478.12109375 C74.0398093 476.73586055 72.52130116 475.3017362 71.0234375 473.84765625 C70.14945313 473.01105469 69.27546875 472.17445313 68.375 471.3125 C67.57707031 470.52875 66.77914062 469.745 65.95703125 468.9375 C63.71961716 467.12629311 63.71961716 467.12629311 61.21875 467.1484375 C57.15271002 468.93031973 54.38823505 471.84965307 51.25 474.9375 C49.90574284 476.22739144 48.5606997 477.51646431 47.21484375 478.8046875 C46.57788574 479.41924805 45.94092773 480.03380859 45.28466797 480.66699219 C43.34159077 482.52357573 41.34930074 484.30941163 39.3125 486.0625 C36.17932988 488.7597508 33.11636574 491.52563891 30.0625 494.3125 C9.78402539 512.77039333 9.78402539 512.77039333 -3.1640625 512.5703125 C-12.0453595 511.87083087 -17.37988564 505.92484953 -23.55859375 500.046875 C-25.8320435 497.88756045 -28.12668207 495.79680396 -30.5 493.75 C-33.68994609 490.9844958 -36.81842989 488.15774228 -39.9375 485.3125 C-43.78562516 481.8045406 -47.64696659 478.31869679 -51.59375 474.921875 C-52.86595292 473.81139279 -54.11493404 472.67393513 -55.34375 471.515625 C-55.9521875 470.95359375 -56.560625 470.3915625 -57.1875 469.8125 C-57.98414063 469.05453125 -57.98414063 469.05453125 -58.796875 468.28125 C-60.40799765 467.11639971 -60.40799765 467.11639971 -62.4296875 467.48046875 C-64.68923041 468.4168163 -66.02179663 469.45988894 -67.8125 471.125 C-71.56476974 474.53488386 -75.38637982 477.84290473 -79.25 481.125 C-83.71240501 484.91816344 -88.04861374 488.79768638 -92.3125 492.8125 C-99.53427215 499.35098949 -104.61553914 502.0788486 -114.5390625 501.69140625 C-121.53557107 500.77676834 -125.78382256 497.52125692 -130.2109375 492.19140625 C-133.30205108 487.45629277 -133.72643431 483.10834918 -133.69476891 477.56685162 C-133.69827498 476.79020402 -133.70178105 476.01355642 -133.70539337 475.21337405 C-133.71472441 472.60138153 -133.70977968 469.98961115 -133.70492554 467.37760925 C-133.70866094 465.4898351 -133.71326202 463.60206249 -133.71865618 461.71429235 C-133.7309152 456.51909553 -133.7306223 451.32396296 -133.72826743 446.12875497 C-133.72786 440.52876371 -133.73889137 434.92879326 -133.74838257 429.32881165 C-133.76500937 418.35453615 -133.77049287 407.38028213 -133.77160732 396.40599509 C-133.77255699 387.48741456 -133.77666319 378.56884112 -133.78300858 369.65026283 C-133.79775784 348.48983741 -133.81005782 327.32941712 -133.80901146 306.16898632 C-133.8089803 305.49216815 -133.80894914 304.81534998 -133.80891704 304.11802216 C-133.80875083 300.68758043 -133.80855274 297.25713869 -133.80834763 293.82669695 C-133.80830774 293.14539187 -133.80826785 292.46408678 -133.80822675 291.76213608 C-133.80814587 290.3843709 -133.80806228 289.00660571 -133.80797596 287.62884053 C-133.80675043 266.19255602 -133.82176367 244.75633477 -133.84912109 223.32006836 C-133.87984029 199.23968637 -133.89702835 175.15935681 -133.89519465 151.07894975 C-133.89453009 138.32768621 -133.90005148 125.57649402 -133.92155075 112.82524681 C-133.93973702 101.96919307 -133.94413088 91.11324301 -133.9305319 80.25718065 C-133.92398942 74.71697823 -133.92393132 69.17697488 -133.9412384 63.63679123 C-133.95691741 58.56567428 -133.9541584 53.49491512 -133.93667014 48.42380718 C-133.93358884 46.58869701 -133.93727498 44.75356047 -133.94839029 42.91848137 C-133.96250093 40.42377837 -133.95193408 37.93033218 -133.93527794 35.43567181 C-133.9452143 34.72332694 -133.95515066 34.01098208 -133.96538812 33.277051 C-133.87751635 27.05122259 -131.72691999 21.96556388 -127.69140625 17.2890625 C-127.13324219 16.84304687 -126.57507813 16.39703125 -126 15.9375 C-125.16662109 15.24527344 -125.16662109 15.24527344 -124.31640625 14.5390625 C-118.07848394 10.46690531 -111.37773584 10.33139868 -104.21484375 11.75390625 C-96.47402163 14.51745209 -90.76183387 21.20877937 -84.99267578 26.81347656 C-81.91833351 29.77681432 -78.68198368 32.53938471 -75.4375 35.3125 C-74.43463098 36.20412928 -73.43205146 37.09608423 -72.4296875 37.98828125 C-71.3495019 38.93031115 -70.26877259 39.87171796 -69.1875 40.8125 C-68.67944824 41.27100342 -68.17139648 41.72950684 -67.64794922 42.2019043 C-64.89601138 44.60797189 -64.89601138 44.60797189 -61.4375 45.4140625 C-58.45691933 43.77241455 -56.11981299 41.53027053 -53.6875 39.1875 C-52.61261914 38.17640256 -51.53709825 37.16598509 -50.4609375 36.15625 C-49.94112305 35.66511719 -49.42130859 35.17398438 -48.88574219 34.66796875 C-47.06503354 32.9638935 -45.19818369 31.31919364 -43.3125 29.6875 C-40.36892136 27.1331549 -37.45851428 24.54571162 -34.5625 21.9375 C-33.72203125 21.18082031 -32.8815625 20.42414062 -32.015625 19.64453125 C-30.29168325 18.08514757 -28.57294567 16.51999186 -26.859375 14.94921875 C-10.51877575 0.03716882 -10.51877575 0.03716882 0 0 Z M-61.3125 179.625 C-62.75274936 183.06559569 -62.5658728 184.77693189 -61.4375 188.3125 C-58.99816248 191.42475821 -57.26439974 192.60470854 -53.4375 193.3125 C-51.7590503 193.40367954 -50.07742107 193.44301935 -48.39649963 193.44621277 C-46.87192139 193.45261024 -46.87192139 193.45261024 -45.31654358 193.45913696 C-44.20734055 193.45868378 -43.09813751 193.45823059 -41.95532227 193.45776367 C-40.78258759 193.46112228 -39.60985291 193.4644809 -38.40158081 193.46794128 C-35.1887644 193.47581156 -31.97598679 193.47911872 -28.7631619 193.47975707 C-26.75499206 193.48046837 -24.74682897 193.48260417 -22.73866081 193.48525429 C-15.73031052 193.49450199 -8.72197924 193.49858982 -1.71362305 193.49780273 C4.81541537 193.49720183 11.34437119 193.50775757 17.87338871 193.5235464 C23.48284685 193.53662731 29.09227801 193.54198641 34.70175129 193.54134732 C38.05033178 193.54109253 41.39883883 193.5439334 44.7474041 193.55452538 C48.48198211 193.56430251 52.21634642 193.5614562 55.95092773 193.55541992 C57.61169594 193.56384918 57.61169594 193.56384918 59.30601501 193.57244873 C60.32522034 193.56825424 61.34442566 193.56405975 62.39451599 193.55973816 C63.27700736 193.56028293 64.15949873 193.56082769 65.06873226 193.56138897 C68.57231144 193.21171638 71.40570549 192.0974677 74.3125 190.125 C76.26785732 187.28973188 76.38404245 184.70319347 76.5625 181.3125 C75.79626217 178.24754868 74.83676798 177.49777084 72.21595764 175.72738647 C67.00828957 173.71059585 62.20824604 173.89430516 56.66967773 173.92431641 C55.47714386 173.91905945 54.28460999 173.91380249 53.05593872 173.90838623 C49.79767333 173.89746963 46.53977549 173.89999312 43.28151584 173.90952349 C39.86589736 173.91714035 36.45030271 173.91006902 33.03468323 173.90536499 C27.30082822 173.89991406 21.56708932 173.90708235 15.83325195 173.92138672 C9.20981757 173.93771985 2.58666016 173.93241742 -4.03676754 173.9159075 C-9.73121112 173.90228297 -15.42557144 173.90037744 -21.12002605 173.90822351 C-24.5177778 173.91289375 -27.91539945 173.91354272 -31.31314278 173.90361404 C-35.10031048 173.89600461 -38.88694437 173.90759733 -42.67407227 173.92431641 C-43.79681046 173.91824371 -44.91954865 173.91217102 -46.0763092 173.90591431 C-47.62602417 173.91860352 -47.62602417 173.91860352 -49.20704651 173.93154907 C-50.10168893 173.93268015 -50.99633135 173.93381123 -51.91808414 173.93497658 C-56.07621671 174.55805452 -58.69635959 176.39842683 -61.3125 179.625 Z M-61.4375 252.3125 C-62.65761399 255.97284196 -62.79013082 257.53671219 -61.1875 261.0625 C-59.28940774 263.50290433 -57.72604116 265.13831434 -54.55741894 265.56665033 C-53.84435648 265.56860125 -53.13129402 265.57055218 -52.39662361 265.57256222 C-51.5716526 265.57962781 -50.7466816 265.5866934 -49.89671147 265.5939731 C-48.53753946 265.59035047 -48.53753946 265.59035047 -47.15090942 265.58665466 C-46.18815562 265.59189134 -45.22540182 265.59712802 -44.23347366 265.60252339 C-40.99300995 265.61757879 -37.75270337 265.61822975 -34.51220703 265.61889648 C-32.1947808 265.62651421 -29.8773571 265.63494103 -27.55993652 265.64411926 C-21.25418959 265.66610853 -14.94849116 265.67486905 -8.64271021 265.67994571 C-4.70600334 265.68358387 -0.76930927 265.68982108 3.16739273 265.6969471 C14.06545024 265.71640732 24.96349469 265.73291763 35.86157036 265.73582363 C36.55906344 265.7360112 37.25655652 265.73619877 37.97518576 265.73639202 C39.38919202 265.73675828 40.80319829 265.73712198 42.21720456 265.73748314 C42.91912569 265.73766595 43.62104681 265.73784876 44.34423828 265.73803711 C45.39840383 265.73830793 45.39840383 265.73830793 46.47386564 265.73858423 C57.86440154 265.74212677 69.25474848 265.7691539 80.64521883 265.806535 C92.33758955 265.84460008 104.02985739 265.8635397 115.72229111 265.86428314 C122.28806332 265.86507765 128.85359181 265.87389596 135.41930771 265.90228081 C141.593378 265.9283747 147.76700102 265.93071497 153.94110107 265.91462517 C156.20949398 265.9128038 158.4779121 265.91956294 160.74625015 265.93544388 C163.83868266 265.95577758 166.92953148 265.94542675 170.02194214 265.92723083 C170.92359537 265.9404308 171.8252486 265.95363077 172.75422466 265.96723074 C177.17694541 265.90762458 178.99489237 265.75234678 182.59628487 262.96157932 C184.88074464 259.88372938 185.5625 258.14209926 185.5625 254.3125 C183.95838152 250.78343933 182.82090638 249.48477092 179.5625 247.3125 C177.64172683 247.01097049 177.64172683 247.01097049 175.52162361 247.05243778 C174.6966526 247.04537219 173.8716816 247.0383066 173.02171147 247.0310269 C171.66253946 247.03464953 171.66253946 247.03464953 170.27590942 247.03834534 C169.31315562 247.03310866 168.35040182 247.02787198 167.35847366 247.02247661 C164.11800995 247.00742121 160.87770337 247.00677025 157.63720703 247.00610352 C155.3197808 246.99848579 153.0023571 246.99005897 150.68493652 246.98088074 C144.37918959 246.95889147 138.07349116 246.95013095 131.76771021 246.94505429 C127.83100334 246.94141613 123.89430927 246.93517892 119.95760727 246.9280529 C109.05954976 246.90859268 98.16150531 246.89208237 87.26342964 246.88917637 C86.56593656 246.8889888 85.86844348 246.88880123 85.14981424 246.88860798 C83.73580798 246.88824172 82.32180171 246.88787802 80.90779544 246.88751686 C80.20587431 246.88733405 79.50395319 246.88715124 78.78076172 246.88696289 C77.72659617 246.88669207 77.72659617 246.88669207 76.65113436 246.88641577 C65.26059846 246.88287323 53.87025152 246.8558461 42.47978117 246.818465 C30.78741045 246.78039992 19.09514261 246.7614603 7.40270889 246.76071686 C0.83693668 246.75992235 -5.72859181 246.75110404 -12.29430771 246.72271919 C-18.468378 246.6966253 -24.64200102 246.69428503 -30.81610107 246.71037483 C-33.08449398 246.7121962 -35.3529121 246.70543706 -37.62125015 246.68955612 C-40.71368266 246.66922242 -43.80453148 246.67957325 -46.89694214 246.69776917 C-47.79859537 246.6845692 -48.7002486 246.67136923 -49.62922466 246.65776926 C-55.26636716 246.7337425 -57.89763058 247.54323812 -61.4375 252.3125 Z M-60.1875 322.5625 C-62.03556681 325.14979353 -62.31112945 327.15323634 -62.4375 330.3125 C-60.66711305 334.54175771 -58.55175483 336.40103128 -54.4375 338.3125 C-51.31134393 338.74720241 -48.21436392 338.71729384 -45.06225586 338.69345093 C-44.11412742 338.6981309 -43.16599897 338.70281087 -42.18913937 338.70763266 C-39.01006548 338.71960484 -35.83142089 338.71011658 -32.65234375 338.70068359 C-30.37403105 338.7047483 -28.09572032 338.71008961 -25.81741333 338.71661377 C-19.62743941 338.73030513 -13.43761528 338.72498113 -7.2476387 338.71547651 C-0.77438193 338.70788939 5.69886188 338.71492289 12.17211914 338.71963501 C23.74013666 338.72544522 35.3080775 338.7161132 46.87608302 338.700857 C57.36371155 338.68745382 67.85124046 338.68978192 78.33886719 338.70361328 C90.51918787 338.71966951 102.69943036 338.72564299 114.8797636 338.71677649 C121.32694071 338.71209567 127.7740492 338.71148642 134.22122192 338.72138596 C140.28198209 338.73004185 146.34255383 338.72405873 152.40329361 338.70670319 C154.62974866 338.702731 156.85621952 338.70388484 159.0826683 338.71049118 C162.11774606 338.71866766 165.15221695 338.70843191 168.18725586 338.69345093 C169.51434366 338.70348918 169.51434366 338.70348918 170.86824131 338.71373022 C175.59681551 338.66834139 178.72099776 338.37763392 182.5625 335.3125 C184.9110228 332.41598854 185.57651228 330.99910183 185.5 327.25 C184.42254183 323.87396441 183.35346506 322.46553019 180.5625 320.3125 C177.82673605 319.44420115 175.35252852 319.18676685 172.49228001 319.18386555 C171.68621832 319.1806411 170.88015664 319.17741665 170.04966885 319.1740945 C168.72988463 319.1764174 168.72988463 319.1764174 167.38343811 319.17878723 C165.97477774 319.1753889 165.97477774 319.1753889 164.53765959 319.17192191 C161.38324827 319.16557951 158.22887989 319.16641143 155.07446289 319.16723633 C152.81600387 319.16424502 150.55754536 319.16084255 148.29908752 319.15705872 C142.1586859 319.14821236 136.0182982 319.14588035 129.87789083 319.14524293 C124.75589838 319.14429433 119.6339092 319.14061665 114.51191801 319.13707083 C103.1212131 319.12938962 91.73051683 319.12640244 80.3398102 319.12707619 C79.65637645 319.12711614 78.97294269 319.1271561 78.26879883 319.12719727 C77.24239707 319.12725859 77.24239707 319.12725859 76.19525992 319.12732115 C65.10231807 319.12772772 54.00941014 319.11815515 42.9164781 319.1040589 C31.52692883 319.08969987 20.13740125 319.08297164 8.74784082 319.08365268 C2.3531956 319.083908 -4.04141121 319.08103765 -10.43604851 319.07047462 C-16.44832427 319.06081452 -22.46052475 319.06070011 -28.47280312 319.06799126 C-30.68152348 319.06903965 -32.89024849 319.06665917 -35.09896088 319.0606308 C-38.10988141 319.05294405 -41.12053981 319.05753371 -44.13145447 319.06526184 C-45.00907989 319.06011828 -45.88670531 319.05497471 -46.79092544 319.04967529 C-51.93272529 319.07891602 -55.88109143 319.48649388 -60.1875 322.5625 Z " fill="#000000" transform="translate(194.4375,-0.3125)"/>
</svg>
