<?xml version="1.0" encoding="UTF-8"?>
<svg version="1.1" xmlns="http://www.w3.org/2000/svg" width="512" height="512">
<path d="M0 0 C5.00192716 4.19288631 9.71329513 8.55865471 14.3125 13.1875 C14.93189453 13.80302734 15.55128906 14.41855469 16.18945312 15.05273438 C16.78306641 15.64763672 17.37667969 16.24253906 17.98828125 16.85546875 C18.51977783 17.38809326 19.05127441 17.92071777 19.59887695 18.46948242 C23.74274285 22.99603675 23.28551234 26.56167178 23.19116211 32.41751099 C22.89506282 37.96658382 22.01608719 43.34551324 21.03125 48.80859375 C20.8314856 49.97777847 20.63172119 51.1469632 20.42590332 52.35157776 C19.58194191 57.29040419 18.71334657 62.22479739 17.84521484 67.15942383 C12.14681152 92.94028515 12.14681152 92.94028515 20 117 C25.02405716 122.79257732 31.24831424 125.75219118 38.8125 126.875 C49.27617137 127.52199195 58.04119215 122.15179179 66.9375 117.25 C68.15403067 116.58954129 69.3709989 115.92988796 70.58837891 115.27099609 C76.96548789 111.80918155 83.30177447 108.27696012 89.62109375 104.7109375 C90.85098474 104.01919134 92.08088371 103.32745935 93.31079102 102.63574219 C95.64510351 101.32225833 97.97020088 99.99568391 100.29272461 98.66113281 C101.34854736 98.06397461 102.40437012 97.46681641 103.4921875 96.8515625 C104.41370605 96.32385254 105.33522461 95.79614258 106.28466797 95.25244141 C110.83245724 93.15478281 113.91773564 92.6870697 118.7421875 94.08203125 C123.76788331 96.1885463 128.42506908 98.94711832 133.125 101.6875 C142.0199433 106.7874936 150.97090707 111.7660462 160.00482178 116.61514282 C161.3254303 117.32493607 162.64466958 118.03728332 163.96246338 118.75228882 C165.82550832 119.76236808 167.69324275 120.76319297 169.5625 121.76171875 C170.63628906 122.33881592 171.71007812 122.91591309 172.81640625 123.51049805 C180.64136634 127.17154724 187.19818061 128.08544678 195.4375 125.4375 C203.09654119 122.41170595 208.14147864 118.26653499 212 110.9375 C217.67247066 96.07953893 212.14864851 78.49292379 209.5 63.4375 C208.64372755 58.56326004 207.80222599 53.68677713 206.96875 48.80859375 C206.67345398 47.17053017 206.67345398 47.17053017 206.37219238 45.49937439 C203.05022838 26.0496762 203.05022838 26.0496762 206.80407715 20.1782074 C209.05965989 17.60155478 211.49125532 15.32954863 214 13 C214.804375 12.05125 215.60875 11.1025 216.4375 10.125 C217.241875 9.196875 218.04625 8.26875 218.875 7.3125 C219.59429687 6.46300781 220.31359375 5.61351562 221.0546875 4.73828125 C229.81236186 -0.43037271 246.71915048 6.31358519 256.1875 8.34765625 C258.3005303 8.79662025 260.41368231 9.24501174 262.52694702 9.69287109 C268.1831787 10.89330349 273.83770139 12.10159891 279.49181366 13.31196976 C285.35663112 14.56667018 291.22255654 15.81616974 297.08837891 17.06616211 C304.19820936 18.58150341 311.30789305 20.09751695 318.41690063 21.61671448 C332.10491901 24.54050316 345.79928239 27.4310166 359.50304413 30.28007698 C364.70812419 31.36356248 369.9116866 32.45431347 375.11520004 33.54529476 C379.11738077 34.38372699 383.12044723 35.21728334 387.12597656 36.0395813 C390.83169859 36.80041482 394.53451879 37.57403367 398.23552322 38.35748291 C400.18437192 38.76646509 402.13612697 39.16152399 404.08798218 39.5559082 C415.36254157 41.96473228 424.23004233 45.31519945 431 55 C437.69399886 65.5808369 433.58354894 81.15093312 431.09765625 92.52783203 C430.78422163 94.01651753 430.47212373 95.50548499 430.16123962 96.9947052 C429.32095023 101.00119962 428.46218813 105.00352293 427.59979248 109.00530863 C426.68907793 113.24707037 425.79576219 117.49249665 424.90039062 121.73751831 C423.19736928 129.79874054 421.47885439 137.85657674 419.75470924 145.91330421 C417.82372301 154.94040203 415.91059765 163.9712528 413.99880791 173.00243211 C410.18884481 190.99645929 406.36411565 208.98731308 402.50607395 226.97109735 C401.44165274 231.93395786 400.38216026 236.89784908 399.32499695 241.86226046 C398.58533877 245.33195195 397.84249594 248.80095649 397.09890747 252.26980758 C396.74333313 253.9316821 396.38904951 255.59383334 396.03610229 257.25626779 C395.54965691 259.54642752 395.0586069 261.83555259 394.56640625 264.1244812 C394.42200104 264.80969558 394.27759583 265.49490995 394.1288147 266.2008884 C393.11404855 270.88595145 393.11404855 270.88595145 392 272 C383.93917911 271.44708207 376.12083171 269.6729743 368.23291016 267.99438477 C366.74383249 267.68081151 365.25467524 267.36761596 363.76544571 267.05476475 C359.70823896 266.20131551 355.65217262 265.34255514 351.59628439 264.48286486 C347.26122441 263.56497207 342.92512178 262.6520301 338.58914185 261.73849487 C330.18586308 259.96723017 321.78354301 258.19145849 313.38154089 256.41414905 C303.6039462 254.34605863 293.82535339 252.28270671 284.04670525 250.21960413 C266.37588062 246.49126849 248.70597137 242.75861328 231.03658485 239.02346861 C218.6631559 236.40786085 206.28942908 233.79367458 193.91503906 231.18261719 C193.22238799 231.03646339 192.52973692 230.8903096 191.81609643 230.7397269 C189.0983809 230.16628001 186.38066245 229.59284698 183.66294008 229.01943249 C109.75833943 213.42607453 35.8767031 197.72489762 -38 182 C-37.33865472 176.08064026 -36.32430761 170.3249852 -35.08911133 164.50048828 C-34.8966171 163.58000387 -34.70412287 162.65951946 -34.50579548 161.71114159 C-33.86764065 158.66353915 -33.22486307 155.61693155 -32.58203125 152.5703125 C-32.12765156 150.40528897 -31.67354567 148.24020795 -31.21969604 146.07507324 C-30.0053113 140.28602149 -28.78683396 134.49783849 -27.56740952 128.7098465 C-26.5620297 123.93558915 -25.55888823 119.16086271 -24.55577183 114.38612938 C-21.5994641 100.31471278 -18.63604724 86.24480026 -15.66950989 72.17553711 C-15.03319116 69.15742825 -14.39710118 66.1392713 -13.7611084 63.12109375 C-11.5551103 52.65284736 -9.34578543 42.18531278 -7.13055038 31.71901703 C-6.68786848 29.62674158 -6.24569595 27.53435899 -5.80361938 25.44195557 C-5.0002456 21.64051075 -4.19376965 17.83972847 -3.38671875 14.0390625 C-3.15548309 12.94420532 -2.92424744 11.84934814 -2.68600464 10.72131348 C-2.47597809 9.73514038 -2.26595154 8.74896729 -2.04956055 7.73291016 C-1.86942917 6.88379059 -1.68929779 6.03467102 -1.50370789 5.15982056 C-1 3 -1 3 0 0 Z M301.88671875 59.01171875 C294.2200269 67.09111037 292.91575639 76.6605548 290.75 87.1875 C290.39725935 88.84340337 290.04310399 90.49900604 289.6875 92.15429688 C288.77264978 96.4324322 287.87940578 100.71443329 287 105 C286.80543213 105.94375488 286.61086426 106.88750977 286.41040039 107.85986328 C284.8825289 115.82733589 285.93059871 122.96476388 290 130 C297.45438076 139.96207567 308.21224118 142.33791953 319.89453125 144.796875 C321.55835091 145.15462006 321.55835091 145.15462006 323.25578308 145.51959229 C325.58857826 146.01811298 327.92236722 146.51200383 330.25708008 147.00146484 C333.79552688 147.74642659 337.32831321 148.51489756 340.86132812 149.28515625 C343.1429242 149.76966751 345.42481653 150.25278618 347.70703125 150.734375 C348.74600052 150.96243835 349.78496979 151.19050171 350.85542297 151.42547607 C361.02058991 153.51654041 371.46705897 155.01468001 380.78125 149.6015625 C392.53369448 141.11828391 394.59837926 127.52150188 397.29248047 114.13818359 C397.75116917 111.86921656 398.22824887 109.60464582 398.70703125 107.33984375 C401.05407193 96.01689746 402.67467139 86.61145981 397 76 C390.76139829 66.57917206 382.25662772 64.250692 371.671875 62.01953125 C370.48708557 61.76121017 369.30229614 61.5028891 368.081604 61.23674011 C365.58149628 60.69427147 363.08013615 60.15754685 360.57763672 59.6262207 C356.77384343 58.8175689 352.97470071 57.98941675 349.17578125 57.15820312 C346.73723029 56.63164817 344.29843553 56.10622075 341.859375 55.58203125 C340.73505066 55.3372554 339.61072632 55.09247955 338.45233154 54.84028625 C324.73082939 51.94677439 313.73518515 50.29885517 301.88671875 59.01171875 Z M204 152 C201.49968346 155.75047482 201.46396446 157.55856266 202 162 C205.37240357 166.11636096 207.97130305 167.69566866 213.1418457 168.76367188 C214.42222214 169.03852417 215.70259857 169.31337646 217.02177429 169.59655762 C218.46891026 169.88745272 219.91608077 170.17817601 221.36328125 170.46875 C222.92814296 170.79770238 224.49260734 171.12854928 226.05671692 171.46105957 C229.64173745 172.22036497 233.22887751 172.96857656 236.81744385 173.7109375 C243.66487243 175.13221097 250.50110278 176.60439556 257.33740234 178.078125 C269.42030229 180.68048816 281.50771966 183.26083325 293.59853935 185.82614136 C294.98993119 186.12138357 296.38131975 186.41664118 297.77270508 186.71191406 C298.46352114 186.85851282 299.1543372 187.00511158 299.86608708 187.15615273 C305.54012641 188.36096849 311.21236298 189.57412179 316.88432997 190.78865004 C322.43029516 191.97566569 327.97772374 193.15567222 333.52628213 194.33050585 C336.80841472 195.02564121 340.08959943 195.72463441 343.3696804 196.4294281 C346.9975446 197.20826573 350.62766368 197.97560432 354.25854492 198.74023438 C355.31977066 198.97078522 356.3809964 199.20133606 357.47438049 199.43887329 C367.30736956 201.90055264 367.30736956 201.90055264 376.69290447 199.91475677 C379.42740419 197.09402439 380 195.20076222 380 191.3125 C378.99811315 187.9937498 378.61131894 187.06788894 376 185 C373.74469432 184.15360732 373.74469432 184.15360732 371.15620422 183.63815308 C370.16046229 183.41300585 369.16472036 183.18785862 368.13880444 182.95588875 C367.04797212 182.72149527 365.9571398 182.48710178 364.83325195 182.24560547 C363.68174054 181.98942381 362.53022913 181.73324215 361.34382343 181.46929741 C357.56525192 180.6332818 353.78313571 179.81509588 350 179 C348.75011166 178.72838295 347.50022331 178.4567659 346.21245956 178.17691803 C337.43516332 176.27042357 328.65106992 174.39712967 319.86412978 172.53569269 C317.63562751 172.06345919 315.40726659 171.59056417 313.17894936 171.11745834 C305.37997893 169.46164951 297.58049974 167.80826265 289.78051758 166.15722656 C282.54003531 164.62454995 275.30075947 163.08626386 268.06198901 161.54552472 C261.79893102 160.21272323 255.5350555 158.88381369 249.27052861 157.55793369 C245.54844209 156.77008758 241.82670421 155.98067931 238.10579491 155.18729019 C234.62710203 154.44568015 231.14741781 153.70891675 227.66690826 152.97588158 C225.78637986 152.57855299 223.90691198 152.17621539 222.02748108 151.77372742 C220.90544281 151.53838791 219.78340454 151.3030484 218.62736511 151.06057739 C217.65545825 150.85451433 216.68355139 150.64845127 215.6821928 150.43614388 C211.24300514 149.71429998 207.85069261 149.47713243 204 152 Z M277.125 205.25 C274.58877762 208.31703021 274.58877762 208.31703021 274 212 C274.88166255 215.18169754 274.88166255 215.18169754 277 218 C281.75286111 220.37248889 286.46069894 221.73915791 291.66015625 222.80932617 C292.39120575 222.96582138 293.12225525 223.12231659 293.87545776 223.28355408 C296.26965682 223.79399565 298.6659198 224.29383658 301.0625 224.79296875 C302.73975637 225.14697098 304.41691968 225.50141442 306.09399414 225.85627747 C309.59977238 226.59634291 313.10659686 227.33116755 316.61425781 228.06225586 C321.09838261 228.99728819 325.57967074 229.94518754 330.06025696 230.89701366 C333.51995329 231.63050379 336.98104709 232.35721353 340.44259644 233.08190346 C342.0951563 233.42869962 343.74728469 233.77755879 345.3989563 234.12856102 C347.71121056 234.61886619 350.02519403 235.10000671 352.33984375 235.57885742 C353.35158157 235.79620544 353.35158157 235.79620544 354.38375854 236.01794434 C358.6505445 236.88795873 362.65013433 237.29551798 367 237 C370.08333333 235.08333333 370.08333333 235.08333333 372 232 C372.75011367 228.45728358 372.75011367 228.45728358 372 225 C368.95879251 221.06116993 365.98002101 220.12433842 361.22851562 218.96582031 C360.23989407 218.72029356 360.23989407 218.72029356 359.23130035 218.46980667 C357.15803065 217.96174303 355.0805689 217.47722438 353 217 C351.09963989 216.56173889 351.09963989 216.56173889 349.16088867 216.11462402 C345.22688442 215.2332468 341.28737817 214.38380602 337.34375 213.546875 C335.90219417 213.23883719 334.46066644 212.93066786 333.01916504 212.62237549 C330.03157423 211.98447764 327.04335267 211.349641 324.0546875 210.71679688 C320.2393812 209.90842757 316.42632942 209.08990558 312.61373138 208.26887131 C309.65155837 207.6325583 306.68802661 207.00276638 303.72407532 206.37479401 C302.31707956 206.07565889 300.91056205 205.77426435 299.50456238 205.47048187 C297.54290725 205.04741456 295.57910198 204.63435488 293.61523438 204.22167969 C292.50353882 203.98503601 291.39184326 203.74839233 290.24645996 203.50457764 C283.22121185 202.31044066 283.22121185 202.31044066 277.125 205.25 Z " fill="#000000" transform="translate(78,146)"/>
<path d="M0 0 C1.25103516 -0.04640625 1.25103516 -0.04640625 2.52734375 -0.09375 C6.21645976 0.77026484 7.57146851 2.66831262 10.0625 5.5 C11.60323894 8.00383659 12.85477743 10.61318698 14.1015625 13.2734375 C14.46452927 14.02608887 14.82749603 14.77874023 15.20146179 15.55419922 C16.37324199 17.98991842 17.53027472 20.43233727 18.6875 22.875 C19.49271639 24.55338559 20.29895528 26.231281 21.10620117 27.90869141 C24.60680915 35.19479593 28.06638577 42.50012611 31.51171875 49.8125 C32.00526855 50.85615723 32.49881836 51.89981445 33.00732422 52.97509766 C33.88739154 54.84111688 34.76067709 56.7103576 35.62548828 58.58349609 C39.5176963 66.87081064 43.47891791 73.60983828 52.0625 77.5 C66.48296639 81.64411266 81.92153009 82.92091824 96.73486328 85.02050781 C100.28295778 85.52540884 103.82900486 86.04308875 107.375 86.5625 C108.45942383 86.71259521 109.54384766 86.86269043 110.66113281 87.01733398 C116.81426579 87.92780629 122.34621915 88.7548839 126.90234375 93.359375 C128.31478728 95.96549977 128.56158363 97.79056956 128.625 100.75 C128.68880859 102.08804688 128.68880859 102.08804688 128.75390625 103.453125 C126.86513024 111.77654471 118.60992439 118.15299284 112.71875 123.86328125 C110.89670677 125.6551632 109.07510574 127.44749488 107.25390625 129.24023438 C104.40868952 132.02976356 101.55974481 134.81517828 98.70263672 137.5925293 C95.92574793 140.29639247 93.16517263 143.01610438 90.40625 145.73828125 C89.55921509 146.55323563 88.71218018 147.36819 87.83947754 148.20783997 C81.33211276 154.65969498 75.24727377 162.11607903 74.0625 171.5 C74.20574518 180.63529758 75.57132688 189.63337769 77.12890625 198.6171875 C77.32725571 199.79918732 77.52560516 200.98118713 77.72996521 202.19900513 C78.35544896 205.92541517 78.98914836 209.65034603 79.625 213.375 C80.46707904 218.3086747 81.30057673 223.24368792 82.12890625 228.1796875 C82.41949669 229.85646072 82.41949669 229.85646072 82.71595764 231.56710815 C85.20005675 246.38179088 85.20005675 246.38179088 82.25 251.875 C79.31517976 255.39678429 77.77339445 256.40018755 73.1953125 257.04296875 C66.31540708 256.8695141 60.77020045 253.12763381 54.9375 249.8125 C53.70426728 249.13012884 52.47012246 248.44940371 51.23510742 247.77026367 C47.49612964 245.7060373 43.77769027 243.60666133 40.0625 241.5 C38.38003174 240.54867187 38.38003174 240.54867187 36.66357422 239.578125 C28.06118686 234.70929079 28.06118686 234.70929079 24.61083984 232.71411133 C11.20149014 224.89575247 11.20149014 224.89575247 -3.9375 223.5 C-11.86614002 225.76034748 -19.01544069 229.44608263 -26.1875 233.4375 C-27.72156494 234.27933838 -27.72156494 234.27933838 -29.28662109 235.13818359 C-37.71421692 239.77832781 -46.09485526 244.50426364 -54.45019531 249.27319336 C-69.3590172 257.77240209 -69.3590172 257.77240209 -76.9375 256.5 C-80.40618763 254.43354779 -82.74641972 252.39808091 -83.9375 248.5 C-84.35228257 240.9758668 -83.00227234 233.80432834 -81.75 226.40234375 C-81.52508018 225.04061003 -81.30089054 223.67875553 -81.07739258 222.31678772 C-80.37120773 218.02249759 -79.65484875 213.7299371 -78.9375 209.4375 C-78.10561588 204.45525264 -77.27801493 199.47234968 -76.45932007 194.48791695 C-76.1315953 192.50475391 -75.79694712 190.52273896 -75.4621582 188.54075623 C-75.26195068 187.32581985 -75.06174316 186.11088348 -74.85546875 184.85913086 C-74.67781982 183.79738144 -74.5001709 182.73563202 -74.31713867 181.64170837 C-73.36054111 173.72536368 -73.88477386 166.19365558 -78.32232666 159.37078857 C-82.98807777 153.43295464 -88.0958959 148.11155011 -93.484375 142.828125 C-94.82390228 141.49995758 -94.82390228 141.49995758 -96.19049072 140.1449585 C-99.01798616 137.34171057 -101.85172084 134.54486056 -104.6875 131.75 C-108.43836629 128.05296404 -112.1819296 124.34871729 -115.921875 120.640625 C-117.21094757 119.37644745 -117.21094757 119.37644745 -118.52606201 118.08673096 C-119.32409241 117.29530701 -120.1221228 116.50388306 -120.94433594 115.68847656 C-121.99521393 114.65330902 -121.99521393 114.65330902 -123.06732178 113.597229 C-127.37990575 108.76107163 -128.4448738 105.21198184 -128.21875 98.87109375 C-127.83893151 95.66901291 -127.11332683 93.89340952 -124.9375 91.5 C-119.1196412 87.71381371 -112.5217948 87.28534244 -105.796875 86.34375 C-103.84462769 86.05580283 -101.89238155 85.76784743 -99.94020462 85.47942352 C-97.21376427 85.07902992 -94.4860476 84.68776568 -91.75823975 84.29681396 C-87.00155861 83.61500478 -82.24567693 82.92801247 -77.49176025 82.22717285 C-74.96626279 81.85578668 -72.43972364 81.49139398 -69.91204834 81.13513184 C-54.52759223 78.97116836 -54.52759223 78.97116836 -41.9375 70.5 C-36.77679724 62.49220067 -32.9273668 53.48183538 -28.78939819 44.9074707 C-27.66921753 42.58712971 -26.54459054 40.26898483 -25.41918945 37.95117188 C-22.14787495 31.20493572 -18.89690031 24.45204005 -15.74609375 17.6484375 C-15.29331055 16.67503418 -14.84052734 15.70163086 -14.37402344 14.69873047 C-13.56688732 12.95477373 -12.76870683 11.20663157 -11.98144531 9.45361328 C-9.23357124 3.51754922 -7.02988912 0.08665503 0 0 Z " fill="#000000" transform="translate(191.9375,-0.5)"/>
<path d="M0 0 C7.86612427 0.57431279 15.4311906 1.99165176 23.13647461 3.63842773 C25.07025624 4.04504796 25.07025624 4.04504796 27.04310417 4.45988274 C30.58604777 5.20500596 34.12757378 5.95667636 37.66888642 6.70950723 C41.46689511 7.51569444 45.26620047 8.31572664 49.06535339 9.11650085 C55.60153411 10.49504665 62.13689135 11.87743931 68.67169189 13.26251221 C78.16692658 15.27505061 87.66341896 17.28160177 97.16021729 19.28674698 C112.98648697 22.62844244 128.81164934 25.97535175 144.63620949 29.32513237 C156.07000678 31.7454387 167.5041315 34.16418286 178.93896484 36.57958984 C179.5972104 36.71863302 180.25545596 36.8576762 180.93364835 37.00093281 C185.43881754 37.95254394 189.94401706 38.90401149 194.44921875 39.85546875 C209.20760708 42.97246177 223.96576606 46.09052059 238.72265625 49.21459961 C243.6627442 50.26033052 248.6028476 51.3059884 253.54296875 52.3515625 C255.38487352 52.7414054 255.38487352 52.7414054 257.26398849 53.13912392 C277.00666077 57.31689561 296.75364411 61.47394305 316.50212812 65.62414491 C322.33826348 66.85072705 328.17418032 68.07834442 334.00994873 69.30667114 C334.82855582 69.47897251 335.6471629 69.65127388 336.49057627 69.82879651 C340.60347469 70.69452531 344.71634398 71.56039243 348.82919312 72.42635536 C357.69536424 74.29291215 366.56225937 76.15595929 375.4300862 78.01463425 C381.46187885 79.27918023 387.49282652 80.5477025 393.52313036 81.81932914 C397.02206638 82.55701134 400.52137515 83.2927968 404.02172279 84.02375412 C407.83662673 84.82043157 411.6497046 85.62562196 415.46264648 86.43164062 C416.58314455 86.66419115 417.70364262 86.89674168 418.85809517 87.13633919 C419.88033621 87.35387289 420.90257725 87.57140659 421.95579529 87.79553223 C422.83951026 87.98114967 423.72322523 88.16676712 424.63371944 88.35800934 C426.9598197 88.98909877 428.89230378 89.84312494 431 91 C430.29511537 94.48453256 429.55663736 97.9611568 428.8125 101.4375 C428.51762695 102.89833008 428.51762695 102.89833008 428.21679688 104.38867188 C426.21057929 113.61727277 423.21645568 121.34512374 415.16796875 126.78125 C403.01709104 133.61201369 391.05492106 130.44378956 378.1875 127.6875 C376.47429091 127.327451 374.76091703 126.96818539 373.0473938 126.6096344 C368.355073 125.62531563 363.66523716 124.62958637 358.97574615 123.63188553 C353.90561791 122.55526793 348.83326552 121.48922179 343.76123047 120.42163086 C331.62934776 117.86556737 319.50112349 115.29238359 307.37345886 112.71639252 C302.94152739 111.77522125 298.50939854 110.83498155 294.07726002 109.89478588 C274.74358779 105.79347735 255.41085136 101.68777884 236.07983398 97.57397461 C209.29736639 91.87545207 182.5097164 86.20236368 155.71484375 80.5625 C154.97099237 80.40592698 154.227141 80.24935396 153.46074867 80.0880363 C139.49035739 77.14751762 125.51954297 74.20901164 111.54815674 71.27322388 C110.85659996 71.12790315 110.16504319 70.98258242 109.45253015 70.83285803 C106.69958087 70.25437086 103.94663151 69.67588412 101.19365168 69.09754241 C93.9708024 67.58016313 86.74838281 66.06081392 79.52722168 64.53541565 C77.04305308 64.01073838 74.55888158 63.48607485 72.07470703 62.96142578 C70.28002802 62.58229176 70.28002802 62.58229176 68.44909286 62.19549847 C61.71678873 60.77569496 54.98098831 59.37482165 48.2403307 57.99522877 C44.30940633 57.18926291 40.38062725 56.37316484 36.45217705 55.55523491 C34.68423059 55.18993513 32.91527273 54.82948745 31.1452198 54.47453499 C18.35627035 51.90863529 6.70852987 49.43431931 -1 38 C-6.94045024 28.02852995 -4.07198223 15.96402028 -1.42358398 5.38500977 C-0.9591373 3.58737165 -0.48106667 1.79326193 0 0 Z " fill="#000000" transform="translate(36,345)"/>
<path d="M0 0 C36.76048242 -0.60622582 73.52003611 -1.05867382 110.28455691 -1.32769857 C114.70753487 -1.36018483 119.1305032 -1.39384029 123.5534668 -1.42822266 C124.43334012 -1.43504273 125.31321344 -1.4418628 126.21974959 -1.44888954 C138.43332433 -1.54595927 150.64461866 -1.70508316 162.85671888 -1.9170936 C183.99399001 -2.28396868 205.12888623 -2.52168523 226.26953125 -2.5390625 C227.51769874 -2.54046744 227.51769874 -2.54046744 228.79108173 -2.54190075 C292.00912418 -2.58668612 351.09770889 5.83720381 412.20266533 21.96449661 C413.20645641 22.22855478 414.21024748 22.49261295 415.24445647 22.76467288 C417.0753052 23.24983036 418.90430011 23.74207768 420.73072749 24.24362314 C426.47030615 25.77411178 432.07637541 26.57582713 438 27 C436.7137079 33.270674 432.81029395 37.96082187 428 42 C420.21530434 47.0315469 411.75259026 46.56507685 402.8374176 46.5146637 C401.19097536 46.51999333 399.544538 46.52706142 397.89810985 46.53571075 C393.38841706 46.55430972 388.87905327 46.54804259 384.36934698 46.53755772 C379.50011879 46.53055794 374.63095765 46.54656956 369.76174927 46.55955505 C360.22845428 46.58118715 350.69527869 46.58107018 341.16196723 46.57292951 C333.41292286 46.56662741 325.6639133 46.56776847 317.91486931 46.57420158 C316.25997556 46.57555407 316.25997556 46.57555407 314.57164962 46.57693387 C312.33031773 46.57878509 310.08898585 46.58064765 307.84765398 46.58252143 C286.83395104 46.59909714 265.82031526 46.59038261 244.80661636 46.57353585 C225.58566895 46.55883896 206.36487786 46.5734676 187.14395059 46.60230602 C167.40228367 46.63170491 147.66068889 46.64267086 127.91900104 46.63312382 C125.68564953 46.63210127 123.452298 46.63110666 121.21894646 46.6301403 C120.12012847 46.62966391 119.02131048 46.62918752 117.88919498 46.6286967 C110.15123096 46.62653323 102.41333529 46.63633307 94.67538643 46.65091133 C85.24273801 46.66843466 75.81028889 46.66831718 66.3776483 46.64555968 C61.56621672 46.63441762 56.75513627 46.63125429 51.94371986 46.64986038 C47.53623204 46.66668499 43.12940107 46.66028742 38.72195565 46.63564359 C37.13053928 46.6307664 35.53906973 46.63425939 33.94769794 46.64713103 C23.95058564 46.72213426 15.49046243 46.12016362 7.86636549 39.01026636 C0.04942025 30.84057523 -0.41992771 23.48660245 -0.1875 12.5625 C-0.16719727 10.74975586 -0.16719727 10.74975586 -0.14648438 8.90039062 C-0.11129946 5.93312918 -0.06206696 2.96680063 0 0 Z " fill="#000000" transform="translate(0,466)"/>
<path d="M0 0 C1.05638672 0.01353516 2.11277344 0.02707031 3.20117188 0.04101562 C5.78052764 0.0760295 8.35863388 0.12783696 10.9375 0.1875 C9.6932186 8.88267763 8.12532998 17.44417115 6.23193359 26.02001953 C5.83647591 27.8351429 5.83647591 27.8351429 5.43302917 29.68693542 C4.86541676 32.29200428 4.29651262 34.89675603 3.72574997 37.50113297 C2.81966674 41.63929463 1.92307506 45.77947861 1.0284729 49.9201355 C0.876335 50.62408734 0.72419711 51.32803919 0.56744897 52.05332291 C0.25665421 53.49141493 -0.0541253 54.92951024 -0.36488986 56.36760879 C-2.44341191 65.98373358 -4.52851328 75.59834329 -6.63671875 85.20800781 C-8.06584905 91.72264917 -9.48069861 98.24022159 -10.87995088 104.76134765 C-11.61736908 108.19530718 -12.36149146 111.62746557 -13.12334061 115.05609512 C-20.35504488 145.61063328 -20.35504488 145.61063328 -11.48828125 174.734375 C-1.78827509 188.21037423 12.27314295 193.0293554 27.98510742 196.21435547 C29.23107697 196.47694153 30.47704651 196.73952759 31.76077271 197.0100708 C35.1463872 197.72331225 38.53485313 198.42199774 41.92405486 199.11796331 C45.51786819 199.85867543 49.10877155 200.61324658 52.70002747 201.36624146 C59.52197374 202.7945042 66.34635362 204.21075644 73.17173225 205.62251484 C80.81223222 207.20341021 88.45010206 208.79681986 96.08768308 210.39174819 C105.46700425 212.35039334 114.8465552 214.30788325 124.2285614 216.25363159 C143.14323601 220.17724351 162.04385355 224.16398882 180.9375 228.1875 C180.9375 228.5175 180.9375 228.8475 180.9375 229.1875 C109.9875 229.1875 39.0375 229.1875 -34.0625 229.1875 C-34.165625 194.90875 -34.26875 160.63 -34.375 125.3125 C-34.42052002 114.49227051 -34.46604004 103.67204102 -34.51293945 92.52392578 C-34.53552246 79.30249023 -34.53552246 79.30249023 -34.53971863 73.11129761 C-34.54437351 68.79077291 -34.56309704 64.47055596 -34.59037781 60.15011597 C-34.62474547 54.63401676 -34.63494263 49.11836323 -34.62786138 43.60216689 C-34.62934148 41.58093767 -34.63921415 39.55969241 -34.65857565 37.53855538 C-34.85039103 16.53432171 -34.85039103 16.53432171 -27.13112354 8.0696125 C-19.41065623 0.34494683 -10.45886531 -0.25734747 0 0 Z " fill="#000000" transform="translate(34.0625,218.8125)"/>
<path d="M0 0 C2.07550465 0.43517521 4.14861665 0.88188244 6.21948242 1.33862305 C7.32547287 1.57566452 8.43146332 1.81270599 9.57096863 2.05693054 C11.89231404 2.5571787 14.21256455 3.06253245 16.53173828 3.57275391 C20.0789408 4.35121735 23.63018568 5.10866208 27.18237305 5.86401367 C29.44501324 6.35430392 31.70739285 6.8457986 33.96948242 7.33862305 C35.02786819 7.56375076 36.08625397 7.78887848 37.17671204 8.02082825 C48.55299371 10.55299285 48.55299371 10.55299285 51.58544922 14.9609375 C54.13569243 22.78456497 50.12733667 33.31665842 48.41601562 41.18945312 C47.94769698 43.36079325 47.50045878 45.53585275 47.0534668 47.71166992 C46.75331431 49.10842993 46.45192558 50.50492498 46.14916992 51.90112305 C45.88322021 53.1519165 45.61727051 54.40270996 45.34326172 55.69140625 C44.19019101 59.2615757 42.82980657 61.33057943 40.26245117 64.0378418 C34.12752108 67.10530684 25.67691316 64.07816463 19.37963867 62.73706055 C17.68099167 62.38149834 17.68099167 62.38149834 15.94802856 62.01875305 C13.56201273 61.51704054 11.17675929 61.01169019 8.79223633 60.50292969 C5.14542291 59.72703785 1.49525106 58.96870439 -2.15551758 58.21166992 C-4.47735605 57.72119213 -6.7989785 57.22969034 -9.12036133 56.73706055 C-10.21003204 56.51193283 -11.29970276 56.28680511 -12.4223938 56.05485535 C-13.4405014 55.83485367 -14.45860901 55.61485199 -15.50756836 55.38818359 C-16.39912628 55.19943161 -17.2906842 55.01067963 -18.20925903 54.81620789 C-22.79704962 53.40379835 -26.33661905 51.25734183 -28.73754883 47.0378418 C-29.48735216 39.13285559 -26.55674403 30.21892527 -24.94604492 22.45898438 C-24.48554538 20.21558164 -24.05114886 17.96800814 -23.61645508 15.71948242 C-23.31987592 14.27709565 -23.02175298 12.83502525 -22.72192383 11.39331055 C-22.46121094 10.10062256 -22.20049805 8.80793457 -21.93188477 7.47607422 C-18.09123115 -3.58032906 -9.66190609 -1.77562573 0 0 Z " fill="#000000" transform="translate(409.737548828125,216.962158203125)"/>
</svg>
