<?xml version="1.0" encoding="UTF-8"?>
<svg version="1.1" xmlns="http://www.w3.org/2000/svg" width="512" height="512">
<path d="M0 0 C5.59563048 4.42784673 9.20334753 9.9512244 12.19921875 16.34375 C12.54126343 17.05195892 12.88330811 17.76016785 13.23571777 18.48983765 C14.33273769 20.7684288 15.41438258 23.05395168 16.49609375 25.33984375 C17.25208885 26.91454783 18.00893018 28.48884592 18.76660156 30.06274414 C22.06885302 36.94625241 25.30991782 43.8515751 28.40234375 50.83203125 C28.85061523 51.84322021 29.29888672 52.85440918 29.76074219 53.89624023 C30.55912889 55.71785575 31.34458725 57.54521702 32.11425781 59.37915039 C32.46198242 60.17957764 32.80970703 60.98000488 33.16796875 61.8046875 C33.4525293 62.48265381 33.73708984 63.16062012 34.03027344 63.85913086 C36.51596283 67.78082997 39.28849503 69.51848803 43.73681641 70.72094727 C45.08366045 70.944812 46.43344558 71.15144146 47.78515625 71.34375 C48.89160995 71.52001671 48.89160995 71.52001671 50.02041626 71.69984436 C52.42659468 72.07728565 54.83543091 72.42976785 57.24609375 72.77734375 C58.06009644 72.89728699 58.87409912 73.01723022 59.71276855 73.14080811 C66.55763815 74.14859122 73.40577577 75.1365536 80.26025391 76.0769043 C107.77650136 79.86951869 107.77650136 79.86951869 116.24609375 89.77734375 C121.69776271 98.39858769 122.53498046 107.44879786 120.7734375 117.46484375 C118.86360716 123.29990329 115.21533118 127.2234353 111.07421875 131.5859375 C110.51428223 132.18369995 109.9543457 132.7814624 109.37744141 133.39733887 C108.00474655 134.86149793 106.6260209 136.31999891 105.24609375 137.77734375 C126.59478638 142.64850344 148.00180422 147.22537588 169.44010544 151.68427467 C171.46900812 152.10633504 173.49783697 152.52874845 175.52664185 152.95127869 C188.1297422 155.57600233 200.73352694 158.19740528 213.33984375 160.80664062 C219.6347059 162.10958502 225.92846808 163.41771321 232.22107744 164.73149562 C235.51772856 165.41953879 238.81500179 166.10414483 242.11338806 166.78385162 C245.76775549 167.53712647 249.42015976 168.29932333 253.07226562 169.06347656 C254.6619516 169.38773117 254.6619516 169.38773117 256.28375244 169.71853638 C271.35840621 172.90009964 285.1818613 177.49236183 294.24609375 190.77734375 C304.59557663 210.13222082 299.77029536 229.77617309 295.26171875 250.234375 C294.73135336 252.70996555 294.20274775 255.18593367 293.67576599 257.6622467 C292.40877251 263.59534307 291.12451526 269.5244584 289.83180553 275.4519971 C288.33603865 282.31471135 286.86076477 289.18177848 285.38737857 296.0493269 C283.43976363 305.12685469 281.48871611 314.2036272 279.5259552 323.27789307 C275.94619212 339.83125275 272.41415759 356.3935467 268.94768143 372.97109795 C268.25167572 376.29839105 267.55405969 379.625342 266.85580444 382.9521637 C266.63186949 384.01913577 266.40793453 385.08610785 266.17721367 386.18541241 C265.73532666 388.29061887 265.2934085 390.3958188 264.8514576 392.50101185 C263.79268135 397.54701867 262.73707308 402.59364676 261.68835449 407.64175415 C260.71503394 412.32503112 259.73133655 417.00601294 258.73988533 421.68548393 C258.38510228 423.36896159 258.03401746 425.05322421 257.68719292 426.73835945 C252.35990038 452.5992893 252.35990038 452.5992893 244.87109375 460.27734375 C244.09507812 461.08945312 243.3190625 461.9015625 242.51953125 462.73828125 C240.53945584 464.51422518 238.81400959 465.65734965 236.49609375 466.90234375 C232.07194085 469.73339572 231.46383618 474.85929995 230.15258789 479.61938477 C227.40220737 489.31167694 221.59796759 497.07892983 213.24609375 502.77734375 C206.0744235 506.6121952 200.04002804 508.89876366 191.89688015 508.91156483 C190.58245951 508.91602267 189.26803887 508.92048051 187.91378731 508.92507344 C186.45143091 508.92498415 184.98907451 508.9247943 183.52671814 508.92451477 C181.97605486 508.92781415 180.42539245 508.93153987 178.87473112 508.93565625 C174.60661064 508.94567604 170.33850423 508.94939301 166.07037365 508.95204556 C161.46963918 508.9559487 156.86891584 508.96552706 152.26818848 508.97425842 C141.1536531 508.99402299 130.03911682 509.00408922 118.92456827 509.01298621 C113.69047555 509.01736929 108.45638386 509.02273607 103.22229195 509.02797508 C85.82266799 509.04498767 68.42304466 509.05948169 51.02341366 509.06672382 C46.50787798 509.06863372 41.9923423 509.07055405 37.47680664 509.07250977 C36.35449229 509.07299351 35.23217794 509.07347725 34.07585407 509.07397565 C15.89640242 509.08227537 -2.28298343 509.1076112 -20.46240634 509.14009044 C-39.12700224 509.1731646 -57.79156469 509.19117293 -76.45619005 509.19436806 C-86.93559279 509.19653287 -97.41489958 509.20527726 -107.89427376 509.23082924 C-116.81936618 509.25254111 -125.74433934 509.26058425 -134.66945518 509.25086246 C-139.22171297 509.24631913 -143.7737247 509.24820589 -148.32594872 509.2676239 C-152.49797504 509.28526611 -156.669576 509.28424938 -160.84160691 509.26872661 C-162.34638891 509.26635213 -163.85120046 509.27066579 -165.35593737 509.28255526 C-178.04476313 509.37655881 -188.05160145 507.30298606 -197.75390625 498.77734375 C-198.35976562 498.27589844 -198.965625 497.77445312 -199.58984375 497.2578125 C-206.00572712 491.50032764 -211.32668606 482.50877271 -211.88270742 473.74790806 C-211.88449599 473.02328894 -211.88628456 472.29866982 -211.88812733 471.55209255 C-211.89258517 470.71141371 -211.89704301 469.87073487 -211.90163594 469.00458091 C-211.90145158 468.08601706 -211.90126722 467.1674532 -211.90107727 466.22105408 C-211.9065923 464.75136519 -211.9065923 464.75136519 -211.91221875 463.25198561 C-211.92325655 459.95957042 -211.92709963 456.66718679 -211.9309082 453.37475586 C-211.93717283 451.01765848 -211.94381963 448.6605621 -211.95082092 446.3034668 C-211.9700483 439.22307934 -211.98064973 432.14269543 -211.98954871 425.06228837 C-211.9939353 421.72495629 -211.9993012 418.38762571 -212.00453758 415.05029488 C-212.02154898 403.95061924 -212.03604159 392.85094457 -212.04328632 381.7512579 C-212.04519611 378.87201371 -212.04711645 375.99276954 -212.04907227 373.11352539 C-212.04955601 372.39793465 -212.05003975 371.68234391 -212.05053815 370.94506861 C-212.05883264 359.36145592 -212.08416008 347.77794669 -212.11665294 336.19437914 C-212.14976744 324.29177671 -212.1677391 312.38922677 -212.17093056 300.48657805 C-212.17309175 293.80777131 -212.1822289 287.12909513 -212.20739174 280.45033073 C-212.23069362 274.16384172 -212.23489692 267.87762363 -212.22463036 261.5911026 C-212.22413539 259.28814098 -212.23044415 256.98516593 -212.2441864 254.68224525 C-212.33752068 238.10932177 -211.34233482 225.62451542 -199.75390625 212.77734375 C-188.1176057 202.5290333 -175.83334821 200.59366421 -160.81640625 200.71484375 C-159.21829102 200.72161133 -159.21829102 200.72161133 -157.58789062 200.72851562 C-154.97650334 200.74022588 -152.36523501 200.75662651 -149.75390625 200.77734375 C-149.62653076 199.78734375 -149.62653076 199.78734375 -149.49658203 198.77734375 C-147.68220878 185.89004985 -144.69613602 173.22652492 -141.91650391 160.52099609 C-141.23039628 157.37819584 -140.5504749 154.23410377 -139.87109375 151.08984375 C-139.65863007 150.12836426 -139.44616638 149.16688477 -139.2272644 148.17626953 C-139.03351227 147.27763184 -138.83976013 146.37899414 -138.64013672 145.453125 C-138.4685202 144.66848877 -138.29690369 143.88385254 -138.12008667 143.07543945 C-137.72132869 140.57289168 -137.57286055 138.30663835 -137.75390625 135.77734375 C-139.54193686 133.57166011 -139.54193686 133.57166011 -141.94140625 131.58984375 C-148.97904298 124.95119115 -152.35191395 117.70673012 -153.00390625 108.08984375 C-152.77774738 98.81733021 -149.56118292 92.82179037 -143.3984375 86.00390625 C-136.18054046 79.92679944 -128.62831985 78.78229282 -119.53125 77.5234375 C-117.64207603 77.24295311 -117.64207603 77.24295311 -115.71473694 76.95680237 C-112.38638496 76.46358761 -109.05689603 75.98111882 -105.72601318 75.50549316 C-101.03482499 74.83534353 -96.34513959 74.15581453 -91.65736389 73.46217346 C-89.16790169 73.09417623 -86.67706825 72.7353065 -84.18479919 72.38682556 C-78.27240421 71.51652627 -73.02269863 70.67329817 -67.75390625 67.77734375 C-65.66659923 64.97915309 -65.66659923 64.97915309 -64.19140625 61.40234375 C-63.52388427 59.96724002 -62.85587287 58.53236389 -62.1875 57.09765625 C-61.81351074 56.27426758 -61.43952148 55.45087891 -61.05419922 54.60253906 C-59.54644926 51.32659418 -57.98563476 48.07765961 -56.4140625 44.83203125 C-56.11758316 44.21942444 -55.82110382 43.60681763 -55.51564026 42.97564697 C-54.59562293 41.07594034 -53.67480189 39.17662475 -52.75390625 37.27734375 C-51.53152499 34.75440217 -50.31020471 32.23095066 -49.08984375 29.70703125 C-48.79697983 29.10179626 -48.50411591 28.49656128 -48.20237732 27.87298584 C-46.55526049 24.46185908 -44.94027668 21.03812009 -43.35546875 17.59765625 C-39.9591507 10.31659187 -36.77523661 4.1800632 -29.75390625 -0.22265625 C-28.23796875 -1.18171875 -28.23796875 -1.18171875 -26.69140625 -2.16015625 C-18.0900227 -5.29689933 -7.94961237 -4.20861831 0 0 Z M-26.28588867 23.60229492 C-28.03438215 27.09588167 -29.71617666 30.61750845 -31.37890625 34.15234375 C-31.99542566 35.44457351 -32.6126217 36.73648066 -33.23046875 38.02807617 C-36.18997816 44.23555607 -39.08268195 50.46974958 -41.90234375 56.7421875 C-42.38622559 57.8161377 -42.87010742 58.89008789 -43.36865234 59.99658203 C-44.26448754 61.9969754 -45.15089743 64.00162809 -46.02587891 66.01123047 C-49.93577627 74.78090483 -54.50616098 82.99175462 -63.75390625 86.77734375 C-77.53960281 90.35111034 -91.96548425 91.77234557 -106.04467773 93.72509766 C-109.16919754 94.16034705 -112.29164509 94.60854392 -115.4140625 95.05859375 C-116.83912865 95.2509259 -116.83912865 95.2509259 -118.29298401 95.44714355 C-123.28487009 96.17589181 -127.41037124 97.03162289 -131.75390625 99.77734375 C-134.07385645 103.07017629 -134.72991066 105.12946287 -134.87890625 109.15234375 C-132.39797627 117.14645147 -124.49045547 123.15326113 -118.625 128.8984375 C-117.07978806 130.42613896 -115.53487521 131.95414298 -113.99023438 133.48242188 C-111.58865078 135.85307431 -109.18482161 138.22130195 -106.77563477 140.58422852 C-104.42683851 142.8904021 -102.08784434 145.2061691 -99.75 147.5234375 C-99.03734482 148.21747177 -98.32468964 148.91150604 -97.59043884 149.62657166 C-89.95870172 157.21940808 -83.74388835 165.03766668 -83.59179688 176.20458984 C-83.63645515 182.42042831 -84.65469358 188.39360604 -85.72265625 194.50390625 C-85.92242065 195.69156586 -86.12218506 196.87922546 -86.32800293 198.10287476 C-86.9622677 201.87071835 -87.60699464 205.63665244 -88.25390625 209.40234375 C-88.9002378 213.17526199 -89.54404348 216.94852232 -90.17980957 220.72323608 C-90.57413562 223.06384624 -90.97447086 225.40345447 -91.38171387 227.74185181 C-93.4860293 238.2423527 -93.4860293 238.2423527 -90.87890625 248.21484375 C-89.01226584 250.81608894 -89.01226584 250.81608894 -86.75390625 251.77734375 C-81.29427092 252.20944589 -78.05079397 251.32180979 -73.28125 248.69921875 C-72.68429321 248.37625824 -72.08733643 248.05329773 -71.47229004 247.72055054 C-69.53758439 246.66966926 -67.61478056 245.59879946 -65.69140625 244.52734375 C-64.3543432 243.79664724 -63.01652624 243.06732868 -61.67797852 242.33935547 C-58.32672595 240.51277767 -54.98452177 238.67034264 -51.64501953 236.8223877 C-47.78232606 234.68783316 -43.90868539 232.57326132 -40.03540039 230.45800781 C-38.1857531 229.44625122 -36.33844579 228.43020092 -34.49389648 227.40917969 C-25.43341533 222.41726702 -17.993414 219.69930973 -7.64672852 221.90283203 C-1.90401156 223.63887829 3.21795895 226.67901257 8.43359375 229.58984375 C9.65748779 230.26028706 10.88194293 230.929707 12.10693359 231.59814453 C15.83156027 233.63730723 19.54070789 235.70346622 23.24609375 237.77734375 C23.83106628 238.10438293 24.41603882 238.43142212 25.01873779 238.76837158 C31.48123187 242.3835573 37.92678225 246.02756143 44.35205078 249.70849609 C48.29699322 251.93470878 51.74636533 252.52729849 56.24609375 251.77734375 C59.61789916 249.40990591 60.97077506 247.85590812 61.99194336 243.85546875 C62.63264814 238.36140961 61.34772051 232.98185895 60.375 227.58984375 C59.96155724 225.17448452 59.54814683 222.75911976 59.13476562 220.34375 C58.47541338 216.5695268 57.81189664 212.79606543 57.14624023 209.02294922 C50.52282825 171.25635823 50.52282825 171.25635823 57.24609375 160.77734375 C61.66329434 155.25722875 66.64614391 150.26020426 71.68359375 145.3125 C73.0873756 143.9213612 74.49101717 142.53008083 75.89453125 141.13867188 C78.07128453 138.98668787 80.24962766 136.83636395 82.43066406 134.6887207 C96.37056848 122.90520927 96.37056848 122.90520927 103.93359375 107.52734375 C103.16817111 103.35231117 102.35343268 101.63273628 99.24609375 98.77734375 C95.69931785 97.11435091 92.37949635 96.35216517 88.51293945 95.8034668 C87.38439041 95.63956955 86.25584137 95.4756723 85.09309387 95.30680847 C83.88159164 95.1359523 82.67008942 94.96509613 81.421875 94.7890625 C78.84039971 94.4088481 76.25902246 94.0279676 73.67773438 93.64648438 C69.62176428 93.05208317 65.56491828 92.46455948 61.50610352 91.88989258 C57.57940967 91.33309269 53.65704469 90.74855045 49.734375 90.1640625 C48.53299393 89.99927902 47.33161285 89.83449554 46.09382629 89.66471863 C36.38300903 88.19360799 27.72338649 85.78750178 21.52093506 77.71917725 C19.21164092 74.20166908 17.36177911 70.52307467 15.56640625 66.72265625 C15.14994843 65.86284149 14.7334906 65.00302673 14.30441284 64.11715698 C12.98336469 61.38354572 11.67710101 58.64316729 10.37109375 55.90234375 C9.50355596 54.10240553 8.63507324 52.30292242 7.765625 50.50390625 C1.00604108 36.48318897 1.00604108 36.48318897 -2.02832031 29.77246094 C-2.56382004 28.59899612 -2.56382004 28.59899612 -3.11013794 27.40182495 C-3.77390534 25.94230228 -4.42889593 24.47874204 -5.07321167 23.01052856 C-6.75494432 19.32407391 -8.11612465 16.71274556 -11.75390625 14.77734375 C-19.987556 13.60110807 -22.44895088 16.52704279 -26.28588867 23.60229492 Z M-121.75390625 152.77734375 C-126.19310296 173.68148235 -130.62652283 194.58683861 -135.05305481 215.49366283 C-137.10846992 225.20086838 -139.16577878 234.90766537 -141.22753906 244.61352539 C-143.02440773 253.07241586 -144.81773038 261.53204893 -146.60678577 269.99259549 C-147.55433649 274.4730044 -148.50366752 278.95301942 -149.45724487 283.43214989 C-150.35462238 287.647574 -151.24725707 291.86397441 -152.13625717 296.08117294 C-152.46344276 297.62911679 -152.79236259 299.17669523 -153.12314224 300.72387505 C-153.5744882 302.83625529 -154.01957651 304.94986149 -154.46313477 307.06388855 C-154.71386246 308.24654895 -154.96459015 309.42920935 -155.22291565 310.64770794 C-155.69654707 313.43927118 -155.86332662 315.95560013 -155.75390625 318.77734375 C-141.90722173 322.42006672 -127.9260631 325.34576758 -113.9140625 328.2734375 C-111.33224892 328.81532977 -108.75049162 329.35748352 -106.16880798 329.8999939 C-100.62732226 331.06401918 -95.08541455 332.22601569 -89.54321289 333.3866272 C-80.67328255 335.24420858 -71.80430322 337.10630494 -62.93554688 338.96948242 C-62.18376939 339.12741591 -61.4319919 339.28534939 -60.65743327 339.44806874 C-56.81851915 340.25456531 -52.97961921 341.0611293 -49.140728 341.86773491 C-46.01706438 342.52404082 -42.89336762 343.18018865 -39.76964188 343.83619881 C-9.71611401 350.14772488 20.3293157 356.49712049 50.37147427 362.86252117 C59.64463533 364.82730523 68.91817862 366.79027469 78.19201028 368.75189102 C84.52781274 370.09209315 90.86352904 371.43270248 97.19921875 372.7734375 C97.8886413 372.91932635 98.57806386 373.06521519 99.288378 373.21552491 C117.15813893 376.99715584 135.02478396 380.79303397 152.88737535 384.6083892 C162.61088489 386.68523401 172.33568974 388.75595265 182.06113434 390.82371998 C189.24759374 392.3522245 196.43217931 393.88915885 203.61542892 395.43267345 C207.97196117 396.36668787 212.33018096 397.29261755 216.68894196 398.21616936 C218.69314252 398.64258086 220.69662012 399.07240681 222.69930267 399.5058918 C225.41326239 400.09289843 228.12950704 400.66782713 230.84667969 401.23974609 C231.63305313 401.41292264 232.41942657 401.58609919 233.22962952 401.76452351 C237.28081021 402.60284756 240.24479909 402.72371576 244.24609375 401.77734375 C244.41155795 400.98940902 244.57702215 400.20147429 244.74750042 399.38966274 C248.79574772 380.11232974 252.84490054 360.83518713 256.89503002 341.55824947 C258.85371391 332.23562035 260.81210444 322.91292978 262.76977539 313.59008789 C264.47843062 305.45311525 266.18766577 297.31626467 267.89756376 289.17955309 C268.80077936 284.88141986 269.70372738 280.58323085 270.60597801 276.28489494 C271.45674917 272.23190574 272.30819801 268.17905955 273.16026652 264.12634289 C273.48363921 262.58799794 273.80682961 261.04961466 274.12982881 259.51119125 C275.66144767 252.21835799 277.20335165 244.92882645 278.81362915 237.65286255 C279.04864545 236.58951722 279.28366175 235.52617189 279.52579975 234.43060398 C279.94809168 232.53032221 280.37445241 230.63093678 280.80619335 228.7327795 C282.99776588 218.8937943 284.08864312 210.01412481 278.7734375 200.9296875 C270.97446156 189.93931476 257.07942543 188.54776966 244.62329102 185.97167969 C243.43397476 185.72059952 242.24465851 185.46951935 241.01930237 185.21083069 C237.79124478 184.53056669 234.56213158 183.8556292 231.33244824 183.18313503 C227.89802484 182.46662066 224.46508565 181.74306057 221.03196716 181.02032471 C214.50547673 179.64745918 207.97771862 178.28072481 201.44946474 176.9162724 C193.44891363 175.24378416 185.45003522 173.56335061 177.45117188 171.8828125 C169.0351549 170.11471304 160.61885367 168.3480311 152.20083618 166.58947754 C140.39917402 164.12339478 128.59984569 161.64935218 116.81591797 159.09960938 C115.00311991 158.70942313 113.19029075 158.31938134 111.37742615 157.92950439 C108.17284976 157.24031982 104.97089235 156.54045863 101.77015686 155.8336792 C100.39496649 155.53742001 99.01968349 155.24159034 97.64428711 154.94628906 C96.49053085 154.69341125 95.3367746 154.44053345 94.14805603 154.17999268 C91.38279304 153.79631085 89.8186688 153.77487603 87.24609375 154.77734375 C85.26773053 156.32799109 85.26773053 156.32799109 83.390625 158.3046875 C82.33391602 159.36913086 82.33391602 159.36913086 81.25585938 160.45507812 C80.53076172 161.20080078 79.80566406 161.94652344 79.05859375 162.71484375 C77.95354492 163.82762695 77.95354492 163.82762695 76.82617188 164.96289062 C71.45789627 170.12335596 71.45789627 170.12335596 70.06054688 177.10693359 C70.12821377 183.35395819 71.1413906 189.36219248 72.21484375 195.50390625 C72.51449036 197.28539566 72.51449036 197.28539566 72.82019043 199.10287476 C73.4544552 202.87071835 74.09918214 206.63665244 74.74609375 210.40234375 C75.3924253 214.17526199 76.03623098 217.94852232 76.67199707 221.72323608 C77.06632312 224.06384624 77.46665836 226.40345447 77.87390137 228.74185181 C79.62528839 239.12517273 80.71265073 249.07750827 74.58203125 258.2734375 C69.2098837 264.79064439 64.23850926 268.01331754 55.90234375 269.2890625 C45.91225623 269.92918365 39.11010934 267.00639257 30.64111328 262.13867188 C27.93787526 260.60215248 25.20377449 259.13260346 22.4609375 257.66796875 C6.417551 249.08591327 6.417551 249.08591327 -0.6015625 244.94140625 C-1.6834082 244.30803345 -1.6834082 244.30803345 -2.78710938 243.66186523 C-4.08945323 242.89365158 -5.38453249 242.1129078 -6.66992188 241.31665039 C-10.9291198 238.80727692 -13.86285857 238.38253197 -18.75390625 238.77734375 C-21.22814243 239.77939423 -23.36044718 240.77983608 -25.6640625 242.07421875 C-26.62635773 242.59208954 -26.62635773 242.59208954 -27.60809326 243.12042236 C-29.68523107 244.24250106 -31.75058007 245.38459584 -33.81640625 246.52734375 C-35.2469206 247.30471067 -36.67816039 248.08074406 -38.11010742 248.85546875 C-41.66986749 250.78564373 -45.22048568 252.73191803 -48.76782227 254.68481445 C-52.74335879 256.87172607 -56.72760237 259.04270626 -60.71069336 261.21582031 C-62.57325393 262.23428123 -64.43356088 263.2568777 -66.29125977 264.28417969 C-67.11037842 264.73567383 -67.92949707 265.18716797 -68.7734375 265.65234375 C-69.47573486 266.04164063 -70.17803223 266.4309375 -70.90161133 266.83203125 C-77.51988245 270.20964372 -86.7013266 269.90657818 -93.75390625 267.94140625 C-99.79683199 265.19629669 -103.42171575 261.4519652 -106.75390625 255.77734375 C-107.68203125 254.23046875 -107.68203125 254.23046875 -108.62890625 252.65234375 C-112.23848617 243.28903913 -109.47627986 231.2038731 -107.75 221.66015625 C-107.54786392 220.47815643 -107.34572784 219.29615662 -107.13746643 218.07833862 C-106.49974967 214.35100872 -105.84748345 210.62648269 -105.19140625 206.90234375 C-104.32280998 201.96960616 -103.46937931 197.03459008 -102.625 192.09765625 C-102.4229747 190.97980743 -102.2209494 189.86195862 -102.01280212 188.7102356 C-100.17605073 178.55490235 -100.17605073 178.55490235 -103.50390625 169.125 C-104.24640625 168.37089844 -104.98890625 167.61679688 -105.75390625 166.83984375 C-106.55957031 166.00839844 -107.36523438 165.17695313 -108.1953125 164.3203125 C-109.46181641 163.06154297 -109.46181641 163.06154297 -110.75390625 161.77734375 C-111.58792969 160.90722656 -112.42195313 160.03710938 -113.28125 159.140625 C-116.43122179 155.86833352 -116.43122179 155.86833352 -119.75390625 152.77734375 C-120.41390625 152.77734375 -121.07390625 152.77734375 -121.75390625 152.77734375 Z M-187.75390625 226.77734375 C-192.38922673 232.91373951 -193.90411218 237.83123728 -193.87416077 245.50309753 C-193.87501519 246.29786997 -193.87586962 247.0926424 -193.87674993 247.91149884 C-193.87840126 250.58319315 -193.872889 253.25482512 -193.86743164 255.92651367 C-193.86714967 257.83826191 -193.8673077 259.75001025 -193.86787415 261.66175842 C-193.86816173 266.85977155 -193.8622713 272.05776172 -193.85530019 277.25576949 C-193.84906016 282.68502293 -193.84846233 288.11427686 -193.84727478 293.54353333 C-193.84416339 303.82823541 -193.83595257 314.1129269 -193.82592529 324.39762431 C-193.81267123 338.29277472 -193.8072627 352.18792802 -193.80142307 366.08308315 C-193.79201257 387.98117796 -193.77209236 409.8792504 -193.75390625 431.77734375 C-130.06390625 431.77734375 -66.37390625 431.77734375 -0.75390625 431.77734375 C-4.21972094 430.0444364 -6.67163438 429.23183637 -10.39318848 428.45606995 C-11.54249847 428.21364563 -12.69180847 427.97122131 -13.87594604 427.72145081 C-15.13311432 427.46218307 -16.39028259 427.20291534 -17.68554688 426.93579102 C-19.02635673 426.6551371 -20.36706267 426.37398634 -21.70767212 426.09237671 C-24.59347325 425.48729624 -27.47997792 424.88573639 -30.36708069 424.28689766 C-34.94213489 423.33792252 -39.51553459 422.38113906 -44.08874512 421.42332458 C-51.33370579 419.90690805 -58.57975401 418.39576139 -65.82627821 416.88683599 C-78.77250199 414.1909726 -91.71715744 411.48760216 -104.66097784 408.78022426 C-109.19648481 407.83179544 -113.73254827 406.8860899 -118.26910305 405.9426862 C-121.10849675 405.3517921 -123.94748614 404.7589721 -126.7863884 404.16572189 C-128.70646758 403.76511614 -130.62704247 403.36688845 -132.54763794 402.96876526 C-163.97324664 396.39213503 -163.97324664 396.39213503 -173.48046875 383.421875 C-175.05087316 380.92702071 -176.43584686 378.41346253 -177.75390625 375.77734375 C-178.09550781 375.11476563 -178.43710938 374.4521875 -178.7890625 373.76953125 C-185.57892711 357.66334079 -178.83697894 337.28271168 -175.30182076 321.17119217 C-174.53151534 317.64103086 -173.78276367 314.10629905 -173.03161621 310.57202148 C-171.61175065 303.90654989 -170.17375712 297.24513601 -168.72857618 290.58511257 C-166.76075789 281.51227116 -164.81930642 272.43379774 -162.87682438 263.35550499 C-162.4100365 261.17407755 -161.94315376 258.99267044 -161.47619629 256.8112793 C-161.32492421 256.10454921 -161.17365212 255.39781912 -161.01779604 254.66967297 C-160.11886762 250.4727932 -159.21558982 246.27687843 -158.30821991 242.08181572 C-157.88170472 240.10974516 -157.45606121 238.13748614 -157.03044128 236.16522217 C-156.5110877 233.75954625 -155.99014441 231.35421279 -155.46736145 228.94927979 C-155.24017929 227.89553162 -155.01299713 226.84178345 -154.77893066 225.75610352 C-154.57982338 224.83740982 -154.38071609 223.91871613 -154.17557526 222.97218323 C-153.69101688 220.82249306 -153.69101688 220.82249306 -153.75390625 218.77734375 C-172.16986158 217.95471823 -172.16986158 217.95471823 -187.75390625 226.77734375 Z M-159.75390625 336.77734375 C-163.47150801 347.13352008 -166.47789025 358.68191 -161.69140625 369.15234375 C-157.6703928 376.20893919 -152.36711008 380.11290544 -144.75390625 382.77734375 C-140.31427338 383.92606144 -135.83157245 384.84322426 -131.34033203 385.76635742 C-129.97336642 386.05284727 -128.60653771 386.33999096 -127.23983479 386.62773132 C-123.51192931 387.41069476 -119.78219543 388.18460887 -116.05209804 388.95705199 C-112.06525412 389.78438659 -108.08021885 390.62034483 -104.09498596 391.45539856 C-97.258459 392.88678315 -90.42090324 394.3131574 -83.58261108 395.73608398 C-72.83186503 397.97327059 -62.08331558 400.22089307 -51.33520508 402.47070312 C-48.62678699 403.03757408 -45.91836633 403.6044328 -43.20994562 404.17129123 C-41.40354593 404.54936617 -39.59714933 404.92745582 -37.79075581 405.30556023 C-31.44966699 406.63275945 -25.10830969 407.95867082 -18.76686096 409.28414917 C9.72291914 415.23987027 38.20003975 421.25308342 66.66818237 427.31143188 C72.38168707 428.52728282 78.09565266 429.74095033 83.80980015 430.95377636 C104.74287673 435.39700181 125.67108693 439.86081525 146.58556557 444.39083862 C152.25938784 445.61846924 157.93450563 446.84009833 163.60968304 448.06144714 C168.77575254 449.17411546 173.93932482 450.29747915 179.10103798 451.43017578 C182.19732635 452.10707679 185.29572929 452.77386014 188.39480591 453.43786621 C189.7970591 453.74051221 191.19841524 454.04735443 192.59869385 454.35900879 C208.65336076 457.97813229 208.65336076 457.97813229 224.21484375 454.08984375 C233.97318358 447.78445493 236.54353506 438.75618745 238.94921875 427.84765625 C239.2900442 425.47084718 239.26486627 423.17577993 239.24609375 420.77734375 C212.85934728 414.81844478 186.40920277 409.18328563 159.93377686 403.63323975 C148.74126679 401.28695145 137.55024846 398.93356046 126.35904312 396.5810585 C123.69899701 396.02190388 121.03892886 395.46285423 118.3788414 394.90389633 C87.05535661 388.32195317 55.73869588 381.70778255 24.42283732 375.0896647 C19.14170025 373.97360824 13.86049695 372.8578656 8.57925415 371.74230957 C-21.26788843 365.43769877 -51.11411945 359.12891308 -80.95490265 352.79426193 C-88.33144605 351.22860454 -95.70828173 349.66432452 -103.08509827 348.09995461 C-109.89384186 346.65578947 -116.7019892 345.2088546 -123.50968647 343.75976562 C-127.62064854 342.88531294 -131.73212321 342.01329046 -135.84374809 341.14196014 C-137.72837526 340.74201318 -139.61277688 340.34100176 -141.49693489 339.9388504 C-144.03733725 339.3967371 -146.57849062 338.85829768 -149.11987305 338.32080078 C-149.85883631 338.16213972 -150.59779957 338.00347866 -151.35915565 337.84000969 C-154.2218747 337.23790513 -156.81863862 336.77734375 -159.75390625 336.77734375 Z M-193.75390625 449.77734375 C-193.87118751 453.44373623 -193.94151516 457.10963895 -194.00390625 460.77734375 C-194.03742188 461.80730469 -194.0709375 462.83726562 -194.10546875 463.8984375 C-194.20671068 471.84592913 -192.88705211 477.24624913 -187.5703125 483.23828125 C-186.82652344 483.86992187 -186.08273438 484.5015625 -185.31640625 485.15234375 C-184.57519531 485.79945313 -183.83398438 486.4465625 -183.0703125 487.11328125 C-178.60160722 490.32351472 -174.82708608 491.02790212 -169.37255573 491.03740597 C-167.42836371 491.04800435 -167.42836371 491.04800435 -165.44489509 491.05881685 C-164.00837315 491.05656554 -162.57185151 491.05411904 -161.1353302 491.05149841 C-159.60783825 491.05595091 -158.0803486 491.06126499 -156.55286235 491.06736714 C-152.35346356 491.08155636 -148.15413875 491.08321025 -143.95471942 491.08277023 C-139.42626912 491.08441763 -134.89784936 491.09748276 -130.36941528 491.10896301 C-120.46646363 491.13181851 -110.56353339 491.13973427 -100.66055894 491.14478946 C-94.47682962 491.14804595 -88.29310652 491.15456817 -82.10938072 491.16179085 C-64.98765291 491.1813578 -47.86593088 491.19776135 -30.74419117 491.20066738 C-29.10050235 491.20094874 -29.10050235 491.20094874 -27.42360769 491.20123577 C-25.20217303 491.20160203 -22.98073838 491.20196572 -20.75930373 491.20232689 C-19.65658262 491.2025097 -18.55386151 491.20269251 -17.41772461 491.20288086 C-16.31365714 491.20306141 -15.20958967 491.20324196 -14.07206561 491.20342798 C3.81702687 491.20696947 21.70599897 491.2339899 39.5950497 491.27137875 C57.9624843 491.30946014 76.32985916 491.32882485 94.69733411 491.32912689 C105.00959363 491.32971151 115.32170955 491.33820655 125.63393211 491.36712456 C134.41522458 491.3916362 143.19632108 491.3989228 151.97763851 491.38387703 C156.45691992 491.37670716 160.93581436 491.37756882 165.41505241 491.40028763 C169.51922774 491.42090439 173.62271925 491.41825248 177.72688738 491.39741278 C179.20806865 491.393923 180.68929953 491.39880629 182.17041578 491.41311722 C191.7971686 491.50010544 199.92872587 490.77327213 207.20799416 483.93404192 C209.97440651 480.96264852 211.33831879 478.73385309 212.24609375 474.77734375 C211.09962875 474.61945185 209.95316376 474.46155994 208.7719574 474.29888344 C197.76463478 472.71295196 187.20059364 470.34863151 176.47964859 467.42808294 C123.18783491 453.11661626 72.08004604 447.58276363 17.18359375 447.62890625 C16.41125916 447.62939622 15.63892457 447.62988619 14.8431859 447.630391 C-4.86951176 447.64891586 -24.57782643 447.88296662 -44.28783131 448.19275546 C-55.71038131 448.37024777 -67.1325197 448.48836083 -78.55615234 448.56884766 C-79.37414885 448.57462757 -80.19214535 448.58040749 -81.03492963 448.58636256 C-85.14327073 448.61509721 -89.25161754 448.64289305 -93.35996819 448.67022443 C-126.82687633 448.8940569 -160.28995608 449.27754313 -193.75390625 449.77734375 Z " fill="#000000" transform="translate(211.75390625,3.22265625)"/>
<path d="M0 0 C1.68585205 0.35556221 1.68585205 0.35556221 3.40576172 0.7183075 C5.7732941 1.21966355 8.13998326 1.72501624 10.50585938 2.23413086 C14.11107119 3.00872609 17.71926979 3.76797353 21.328125 4.52539062 C23.63561104 5.0160138 25.94290935 5.5075209 28.25 6 C29.3210498 6.22512772 30.39209961 6.45025543 31.49560547 6.6822052 C40.46718956 8.62746426 48.85207546 10.56655328 55.125 17.69921875 C62.95216014 30.22267497 60.05703581 42.96282714 56.92675781 56.54589844 C56.37358348 58.95538878 55.84571569 61.36947567 55.3203125 63.78515625 C54.97023649 65.34538636 54.61872338 66.90529486 54.265625 68.46484375 C54.11127991 69.17336487 53.95693481 69.88188599 53.7979126 70.61187744 C51.78530389 79.19050478 48.46691993 85.66341469 41.125 90.69921875 C28.60470315 98.36470662 10.91668156 92.15690288 -2.28125 89.21923828 C-5.75912547 88.44719301 -9.24209037 87.70257494 -12.7265625 86.9609375 C-14.96128886 86.47426687 -17.19567695 85.98603974 -19.4296875 85.49609375 C-20.4600412 85.27612732 -21.4903949 85.05616089 -22.55197144 84.82952881 C-30.58069187 83.01902296 -37.7095418 80.76924155 -43.25 74.32421875 C-43.89710938 73.59460938 -44.54421875 72.865 -45.2109375 72.11328125 C-50.45748514 64.50209242 -49.69423007 55.13418396 -48.19775391 46.40380859 C-47.4620783 42.50835286 -46.61689203 38.64106649 -45.73168945 34.77709961 C-45.1853237 32.37715923 -44.67066648 29.97183344 -44.15820312 27.56445312 C-41.74669551 16.59279569 -38.81670422 7.09458359 -28.875 0.69921875 C-19.15484089 -3.9419383 -10.14644261 -2.19024519 0 0 Z M-22.54595947 19.12530518 C-24.79559185 21.78942779 -25.38756948 24.82361589 -25.9921875 28.16015625 C-26.13907013 28.86894928 -26.28595276 29.57774231 -26.43728638 30.30801392 C-26.74207698 31.80012346 -27.03559797 33.29457511 -27.31835938 34.79101562 C-27.74832218 37.06534378 -28.21064282 39.3310986 -28.6796875 41.59765625 C-28.97326445 43.05560622 -29.26499273 44.51392992 -29.5546875 45.97265625 C-29.75612869 46.97768692 -29.75612869 46.97768692 -29.9616394 48.00302124 C-30.77054279 52.31625084 -31.47424559 56.33822019 -30.875 60.69921875 C-26.33613802 66.07638172 -20.98880863 67.04517845 -14.2890625 68.375 C-13.27331146 68.58988571 -12.25756042 68.80477142 -11.21102905 69.02616882 C-9.06952182 69.47550614 -6.92619479 69.91624649 -4.78125 70.34887695 C-1.51376199 71.0089387 1.74700767 71.69642711 5.0078125 72.38867188 C7.09601599 72.82324276 9.18454813 73.25623802 11.2734375 73.6875 C12.24139252 73.89055252 13.20934753 74.09360504 14.20663452 74.30281067 C19.59993673 75.38069856 24.63761975 76.36090406 30.125 75.69921875 C34.82752761 72.37496999 36.11874173 68.65965339 37.14453125 63.203125 C37.36697762 62.13637794 37.36697762 62.13637794 37.59391785 61.04808044 C37.90244528 59.55134943 38.20197167 58.05273755 38.49291992 56.55249023 C38.93623165 54.26825412 39.40592845 51.99074092 39.88085938 49.71289062 C40.17863712 48.25161785 40.47491173 46.7900378 40.76953125 45.328125 C40.90696243 44.65294327 41.04439362 43.97776154 41.18598938 43.28211975 C42.8364255 35.83381916 42.8364255 35.83381916 40.34399414 29.00512695 C35.73490022 25.70342865 31.12333452 24.90188462 25.62109375 23.8046875 C23.94793846 23.44906487 23.94793846 23.44906487 22.24098206 23.08625793 C18.68491927 22.33545633 15.12398136 21.61132834 11.5625 20.88671875 C9.16176497 20.38119009 6.76136942 19.8740464 4.36132812 19.36523438 C-2.22576378 17.98353204 -2.22576378 17.98353204 -8.81860352 16.62963867 C-9.70064957 16.44930588 -10.58269562 16.26897308 -11.49147034 16.08317566 C-16.42282013 15.2887967 -18.80970401 15.77604996 -22.54595947 19.12530518 Z " fill="#000000" transform="translate(404.875,203.30078125)"/>
<path d="M0 0 C1.00628071 0.19655937 2.01256142 0.39311874 3.04933548 0.59563446 C4.69689898 0.93011974 4.69689898 0.93011974 6.37774658 1.2713623 C7.53256908 1.499972 8.68739159 1.7285817 9.87720871 1.96411896 C13.61532478 2.70762068 17.35074376 3.46359603 21.08575439 4.22253418 C22.28434586 4.46482758 23.48293732 4.70712097 24.71784973 4.95675659 C40.81812482 8.21618404 56.89856556 11.57316266 72.97768021 14.93521881 C81.19159365 16.6524286 89.40782658 18.35757206 97.62734914 20.04773474 C103.46833904 21.2498668 109.30638335 22.46566951 115.14243388 23.69155359 C118.60683731 24.41886265 122.07223635 25.14013598 125.54099274 25.84642029 C129.38727475 26.62987726 133.22729895 27.44155012 137.06719971 28.2557373 C138.20167542 28.48237564 139.33615112 28.70901398 140.50500488 28.94252014 C146.68100944 30.27965908 150.71168287 31.56840582 155.08575439 36.22253418 C156.12123081 39.02628572 155.83865992 41.34991002 155.08575439 44.22253418 C153.14825439 47.22253418 153.14825439 47.22253418 150.08575439 49.22253418 C143.4142894 50.17096046 136.75005159 48.56664416 130.26226807 47.1463623 C129.21662689 46.92512695 128.17098572 46.7038916 127.09365845 46.47595215 C123.6450822 45.74398288 120.19945684 44.99901002 116.75372314 44.25378418 C114.31950229 43.7341073 111.88511691 43.21520058 109.45057678 42.69702148 C103.68051483 41.46677352 97.91229222 40.22818448 92.14485675 38.98568678 C85.09134012 37.46675713 78.03475931 35.96224769 70.97833252 34.45690918 C59.98150868 32.1096352 48.98966291 29.74006446 38.00042534 27.35754395 C31.77339163 26.01010738 25.54246896 24.68535173 19.30360317 23.39380646 C15.89282557 22.68598023 12.48499513 21.96466502 9.07766151 21.24046326 C7.55798776 20.92113976 6.0369336 20.60830247 4.5144558 20.30262756 C2.47345906 19.8923886 0.43848004 19.45977849 -1.59661865 19.0213623 C-3.26412422 18.67724304 -3.26412422 18.67724304 -4.96531677 18.32617188 C-8.61682484 16.95959364 -10.45083307 15.21685233 -12.91424561 12.22253418 C-13.53924561 8.72253418 -13.53924561 8.72253418 -12.91424561 5.22253418 C-8.93833188 0.27950631 -6.16536517 -1.22624889 0 0 Z " fill="#000000" transform="translate(289.91424560546875,292.7774658203125)"/>
<path d="M0 0 C1.56448382 0.32967163 3.12908669 0.65877876 4.69380188 0.98735046 C7.9586812 1.67508236 11.22210811 2.36923738 14.48461914 3.06811523 C18.65479208 3.96093748 22.82807597 4.83809649 27.00255108 5.71055317 C30.22869388 6.38651654 33.45310138 7.0704746 36.67704201 7.75685692 C38.21504096 8.08336026 39.75354963 8.40747248 41.29257774 8.72908974 C43.44515404 9.18023462 45.5951736 9.6420559 47.74487305 10.10668945 C48.96571091 10.36650101 50.18654877 10.62631256 51.44438171 10.89399719 C56.41901733 12.27271067 59.8920316 13.46109428 62.80078125 17.82421875 C63.24748762 21.84457607 63.18327141 24.12043686 61.23828125 27.69921875 C58.04105627 30.4865431 56.00670077 30.51013718 51.80078125 30.82421875 C49.18788099 30.49042124 46.75759738 30.08475325 44.20068359 29.51660156 C43.47617508 29.36550934 42.75166656 29.21441711 42.00520325 29.05874634 C39.62970842 28.5600414 37.2583167 28.044237 34.88671875 27.52734375 C33.22734807 27.17360235 31.56780936 26.82064833 29.90811157 26.46844482 C26.43836622 25.72937858 22.97054181 24.9820302 19.50390625 24.22851562 C15.06733871 23.26469518 10.62699737 22.31980756 6.18511009 21.38084793 C2.76064455 20.65511194 -0.66182802 19.92032069 -4.08375168 19.18270111 C-5.72021978 18.83089629 -7.35724483 18.48167169 -8.99483109 18.13510895 C-11.28458855 17.64890811 -13.57143473 17.15079167 -15.85791016 16.64941406 C-16.53024185 16.50901703 -17.20257355 16.36862 -17.89527893 16.22396851 C-23.37614029 15.00005996 -27.04180707 13.56033627 -30.19921875 8.82421875 C-30.70340109 4.18574118 -29.97876272 1.56591256 -27.19921875 -2.17578125 C-19.54053748 -6.00512188 -7.98345238 -1.71252561 0 0 Z " fill="#000000" transform="translate(375.19921875,345.17578125)"/>
</svg>
