<?xml version="1.0" encoding="UTF-8"?>
<svg version="1.1" xmlns="http://www.w3.org/2000/svg" width="512" height="512">
<path d="M0 0 C0.98033203 -0.01611328 1.96066406 -0.03222656 2.97070312 -0.04882812 C12.07081068 -0.05500607 12.07081068 -0.05500607 15.9375 3.3125 C17.59566798 6.62883595 18.17511219 8.38365235 17.25 12 C15.95257329 14.28594229 14.97341701 15.67076253 12.9375 17.3125 C10.74853516 17.69726562 10.74853516 17.69726562 8.2265625 17.71875 C7.31132813 17.74066406 6.39609375 17.76257813 5.453125 17.78515625 C4.49921875 17.79417969 3.5453125 17.80320312 2.5625 17.8125 C0.67951381 17.83045763 -1.20340221 17.86130183 -3.0859375 17.90625 C-4.33769775 17.91688477 -4.33769775 17.91688477 -5.61474609 17.92773438 C-8.6684194 18.25093897 -8.6684194 18.25093897 -13.0625 21.3125 C-13.3925 27.5825 -13.7225 33.8525 -14.0625 40.3125 C109.6875 40.3125 233.4375 40.3125 360.9375 40.3125 C361.87522786 24.1429548 361.87522786 24.1429548 354.9375 18.3125 C352.2636695 17.57827567 352.2636695 17.57827567 349.36711025 17.69281673 C348.25190201 17.68184489 347.13669377 17.67087305 345.98769134 17.65956873 C344.76766247 17.67297046 343.5476336 17.6863722 342.29063416 17.70018005 C340.99061464 17.69464664 339.69059513 17.68911323 338.35118109 17.68341213 C334.74424599 17.6686617 331.13801513 17.6849717 327.53113735 17.70626509 C323.64084051 17.72374809 319.75061844 17.71233118 315.86030579 17.70425415 C309.11972883 17.69404635 302.37936165 17.70165726 295.6388073 17.72091484 C285.88875012 17.74839512 276.1388962 17.74457588 266.38881702 17.73232902 C250.56444723 17.71293183 234.74014438 17.71288008 218.91577148 17.7277832 C217.49506336 17.7291124 217.49506336 17.7291124 216.04565407 17.73046846 C212.20773971 17.73410262 208.36982546 17.73782002 204.53191128 17.74163502 C193.964228 17.75210004 183.39654387 17.7603436 172.82885742 17.7668457 C171.88256806 17.76743394 170.93627869 17.76802217 169.9613139 17.76862823 C154.19518757 17.77790073 138.4291013 17.77144559 122.66298205 17.75453526 C112.93459118 17.74493316 103.20641496 17.75013602 93.47804821 17.77430297 C86.81598758 17.79002634 80.1540186 17.79189651 73.49194591 17.78276973 C69.64532295 17.7780313 65.79899496 17.78001629 61.95241165 17.79940605 C57.7871999 17.8202942 53.62262643 17.81058239 49.4573822 17.7978363 C48.23512261 17.80900732 47.01286301 17.82017834 45.75356525 17.83168787 C44.64096476 17.82332377 43.52836427 17.81495968 42.38204861 17.80634212 C41.42026933 17.80753361 40.45849006 17.80872509 39.46756595 17.80995268 C36.19779314 17.16706144 35.00238349 15.87007339 32.9375 13.3125 C32.00883491 9.56859033 32.43375347 6.24802926 34.25 2.875 C37.29190904 0.05841756 40.3024456 0.18619511 44.24782753 0.18107224 C45.9100415 0.17531052 45.9100415 0.17531052 47.60583556 0.1694324 C49.43950149 0.17073213 49.43950149 0.17073213 51.31021118 0.17205811 C52.60499401 0.16908698 53.89977685 0.16611586 55.23379552 0.1630547 C58.83534638 0.15497587 62.43687733 0.15319464 66.03843617 0.15245724 C69.91998789 0.15060817 73.80152922 0.14306148 77.68307495 0.13632202 C86.17496488 0.12273098 94.6668501 0.11671252 103.1587491 0.11231136 C108.46102149 0.10954973 113.76329205 0.10531247 119.0655632 0.10080719 C133.7449539 0.08861254 148.42434313 0.07831425 163.10373878 0.0749321 C164.51348522 0.07460275 164.51348522 0.07460275 165.95171138 0.07426675 C167.36484642 0.07393933 167.36484642 0.07393933 168.80652964 0.0736053 C170.71558356 0.07316183 172.62463749 0.07271527 174.53369141 0.07226562 C175.48064961 0.0720442 176.4276078 0.07182277 177.40326171 0.07159463 C192.74208014 0.06764794 208.08085103 0.05019873 223.41965111 0.0269061 C239.16651424 0.00318684 254.91335352 -0.00927005 270.66023481 -0.01043582 C279.5019568 -0.01135236 288.34361688 -0.01709923 297.18532181 -0.03525543 C304.71574423 -0.05066431 312.24608561 -0.05577231 319.7765208 -0.04751733 C323.61762312 -0.04361334 327.45856228 -0.04452798 331.29964447 -0.05857468 C335.46750952 -0.07367671 339.63500772 -0.06543949 343.80288696 -0.05499268 C345.6164764 -0.06707728 345.6164764 -0.06707728 347.46670401 -0.07940602 C356.77138045 -0.02484386 364.44672052 1.11605371 371.43359375 7.6328125 C375.84784586 12.56301616 378.05531153 17.91328905 378.07172108 24.50765896 C378.07617892 25.34158781 378.08063676 26.17551665 378.08522969 27.03471607 C378.08495315 28.40119166 378.08495315 28.40119166 378.08467102 29.79527283 C378.08834771 30.76704816 378.0920244 31.73882349 378.0958125 32.74004656 C378.10684925 36.00500706 378.11069312 39.26993574 378.11450195 42.53491211 C378.12076642 44.87218833 378.1274132 47.20946355 378.13441467 49.54673767 C378.15182142 55.90200228 378.16237476 62.25725938 378.1706202 68.61254191 C378.17576922 72.58057394 378.18184488 76.54860362 378.18813133 80.51663399 C378.20499686 91.50308789 378.21963354 102.48953973 378.22688007 113.4760046 C378.22878993 116.32539305 378.23071028 119.1747815 378.23266602 122.02416992 C378.23314976 122.73236268 378.2336335 123.44055544 378.2341319 124.17020858 C378.24243832 135.65117725 378.26778811 147.13204193 378.30024669 158.61296516 C378.33330002 170.40027739 378.35132709 182.18753671 378.35452431 193.97489554 C378.35687926 200.59316018 378.36589815 207.21126029 378.39098549 213.82948112 C378.41419239 220.05193187 378.41852914 226.27410884 378.40822411 232.49659157 C378.4077269 234.78272281 378.41410142 237.06886721 378.42778015 239.35495758 C378.4453861 242.47121798 378.43844836 245.5864837 378.42524719 248.70274353 C378.43621644 249.61149654 378.44718568 250.52024955 378.45848733 251.45654052 C378.4165011 255.54970628 378.26138625 257.77054139 376.12185955 261.35060978 C373.08712519 264.07626713 370.9758788 264.3125 366.9375 264.3125 C363.98994268 262.96687601 362.39472728 262.22695456 360.9375 259.3125 C360.9375 205.8525 360.9375 152.3925 360.9375 97.3125 C237.1875 97.3125 113.4375 97.3125 -14.0625 97.3125 C-30.51900139 184.02727784 -30.51900139 184.02727784 -10.0625 255.3125 C-6.09262463 256.63579179 -2.2947897 256.44855829 1.84350586 256.43847656 C2.7543544 256.4403447 3.66520294 256.44221283 4.60365295 256.44413757 C6.58271438 256.44814259 8.56178043 256.4502165 10.54084587 256.45059967 C14.74440273 256.45401133 18.94780435 256.47536602 23.15130711 256.49583054 C30.98069382 256.53388793 38.80991455 256.56511121 46.6394043 256.56298828 C52.0830743 256.56220262 57.52617619 256.585501 62.96969795 256.6248703 C65.04572561 256.63535288 67.12181866 256.63683781 69.19785881 256.62921906 C72.09990135 256.61962982 75.00021352 256.64071694 77.90209961 256.66894531 C79.19191238 256.65365028 79.19191238 256.65365028 80.50778198 256.63804626 C86.32062015 256.73962913 86.32062015 256.73962913 89.47096252 259.66522217 C91.27755962 262.92634881 91.55017982 264.6364211 90.9375 268.3125 C89.50616455 270.96055603 89.50616455 270.96055603 86.9375 273.3125 C83.74531192 274.06403354 80.60572684 273.98523601 77.33886719 273.94360352 C75.8796006 273.95433647 75.8796006 273.95433647 74.39085388 273.96528625 C71.17155119 273.98220769 67.95363478 273.96274402 64.734375 273.94140625 C62.49481084 273.94223489 60.25524674 273.94469411 58.01568604 273.94871521 C53.31805141 273.95157594 48.62089282 273.9368494 43.92333984 273.90942383 C37.91315365 273.8754198 31.9038232 273.88133081 25.89359665 273.9000864 C21.26604132 273.91067896 16.63868353 273.90169665 12.01114655 273.88670158 C9.79605954 273.88153059 7.58095181 273.88198838 5.36586761 273.88824654 C2.2613682 273.89372264 -0.84192697 273.87324302 -3.94628906 273.84594727 C-5.31035637 273.85573608 -5.31035637 273.85573608 -6.70198059 273.86572266 C-13.71138749 273.76141146 -18.99257083 272.00269926 -24.3046875 267.34765625 C-24.84351563 266.69667969 -25.38234375 266.04570312 -25.9375 265.375 C-26.49179687 264.72660156 -27.04609375 264.07820313 -27.6171875 263.41015625 C-31.3450657 257.99969519 -31.35363041 253.10201928 -31.33665466 246.74311829 C-31.34189134 245.77401636 -31.34712802 244.80491443 -31.35252339 243.80644578 C-31.36753575 240.55622493 -31.36822882 237.30616135 -31.36889648 234.0559082 C-31.37651721 231.7265954 -31.38494456 229.39728511 -31.39411926 227.06797791 C-31.41608159 220.73722109 -31.4248657 214.40651259 -31.42994571 208.07572198 C-31.43358768 204.11986928 -31.43982697 200.16402925 -31.4469471 196.20818138 C-31.46640415 185.24743184 -31.48291613 174.28669283 -31.48582363 163.32592487 C-31.4860112 162.62482462 -31.48619877 161.92372437 -31.48639202 161.20137865 C-31.48675827 159.78017851 -31.48712197 158.35897836 -31.48748314 156.93777821 C-31.48766595 156.23232752 -31.48784876 155.52687682 -31.48803711 154.80004883 C-31.48821766 154.09373312 -31.48839821 153.38741742 -31.48858423 152.65969821 C-31.49212408 141.22093531 -31.51913543 129.78236088 -31.556535 118.34366331 C-31.59465863 106.58905766 -31.61398141 94.83454542 -31.61428314 83.0798766 C-31.61507599 76.48435255 -31.62381855 69.88907158 -31.65228081 63.2936039 C-31.67846326 57.08748224 -31.68066511 50.88180516 -31.66462517 44.67565346 C-31.66281077 42.40129629 -31.66950045 40.12691355 -31.68544388 37.85261154 C-31.70592783 34.74015078 -31.69533788 31.62924207 -31.67723083 28.51679993 C-31.6904308 27.62329325 -31.70363077 26.72978656 -31.71723074 25.80920392 C-31.61770051 18.28459465 -29.25061577 11.46180392 -23.81640625 6.09375 C-23.09324219 5.6709375 -22.37007812 5.248125 -21.625 4.8125 C-20.90441406 4.3690625 -20.18382812 3.925625 -19.44140625 3.46875 C-12.88207621 0.28063556 -7.18431402 -0.02371061 0 0 Z M-14.0625 57.3125 C-14.0625 64.9025 -14.0625 72.4925 -14.0625 80.3125 C109.6875 80.3125 233.4375 80.3125 360.9375 80.3125 C360.9375 72.7225 360.9375 65.1325 360.9375 57.3125 C237.1875 57.3125 113.4375 57.3125 -14.0625 57.3125 Z " fill="#000000" transform="translate(63.0625,58.6875)"/>
<path d="M0 0 C0.92039062 0.28875 1.84078125 0.5775 2.7890625 0.875 C18.24161953 6.3692425 33.60667349 19.21334699 41 34 C43.44445382 34.52016053 45.84534652 34.93851019 48.3125 35.3125 C65.36349481 38.2343351 80.56841905 46.54256943 90.9375 60.6328125 C95.68725853 67.81886958 95.68725853 67.81886958 96.8046875 72.0390625 C97.77157083 75.5290509 98.43489539 77.40322743 101 80 C106.06841986 81.67793697 111.45212308 81.92140836 116.73828125 82.41015625 C129.45022994 83.62114019 140.90937912 90.65313612 149.078125 100.30859375 C159.21730358 114.50756538 161.32658453 128.99318628 160 146 C157.84443791 158.2475119 151.34099664 169.75619979 142 178 C128.21553011 187.4089699 115.08287388 190.15244478 98.59863281 190.14526367 C96.92402733 190.15030159 96.92402733 190.15030159 95.21559143 190.15544128 C91.54475782 190.16490037 87.87397002 190.16689137 84.203125 190.16796875 C81.6458128 190.17118311 79.08850078 190.17454732 76.53118896 190.17805481 C71.1817576 190.1840322 65.83234322 190.18593891 60.48291016 190.18530273 C54.30254146 190.18470041 48.12225959 190.19528972 41.94191289 190.2110464 C35.98424997 190.2256926 30.02661367 190.22929108 24.06893158 190.22869301 C21.53792718 190.22987472 19.00692217 190.23430715 16.47592926 190.24202538 C12.94514152 190.25179061 9.41458022 190.24896165 5.88378906 190.24291992 C4.83540359 190.24853943 3.78701813 190.25415894 2.7068634 190.25994873 C1.74529831 190.25575424 0.78373322 190.25155975 -0.20697021 190.24723816 C-1.04094204 190.24778293 -1.87491386 190.24832769 -2.73415756 190.24888897 C-5.25190301 189.97232999 -6.85071844 189.32193846 -9 188 C-11.29968563 184.78044012 -11.55348638 181.87440468 -11 178 C-8.95644385 175.04682043 -7.32083543 173.26538388 -3.71298981 172.5404911 C-0.77369433 172.35659158 2.12827117 172.33938968 5.07324219 172.37231445 C6.19092987 172.36504333 7.30861755 172.35777222 8.46017456 172.35028076 C12.15606262 172.33167512 15.85098626 172.34776581 19.546875 172.36328125 C22.11892563 172.35524149 24.6909696 172.34472362 27.26300049 172.33183289 C33.34729728 172.3061679 39.43126189 172.30118757 45.51559949 172.30760592 C57.03970445 172.31918631 68.56366029 172.28805408 80.08768463 172.24724388 C83.86604376 172.23841176 87.64418779 172.24368966 91.42254639 172.25080872 C93.75142474 172.24742242 96.08030261 172.24367262 98.40917969 172.23950195 C99.97588913 172.24804451 99.97588913 172.24804451 101.57424927 172.25675964 C114.0223223 172.2068033 123.91331245 169.48218926 133.1796875 160.90625 C139.79775533 153.9757412 142.91291193 145.15501668 143.4375 135.625 C143.00105075 125.47755496 139.24476554 116.10597692 132 109 C123.49617222 101.57003443 114.24877485 98.28579207 103 99 C101.27073456 99.20751185 99.54157161 99.41587924 97.8125 99.625 C91.16027853 100.29838438 91.16027853 100.29838438 88 98 C86.25148359 94.78272981 85.20866063 91.68288933 84.140625 88.1875 C82.2423121 82.08800281 80.14815664 77.10939561 76.3671875 71.9375 C75 70 75 70 74.0703125 67.875 C72.70937681 65.49087908 71.47899379 65.106774 69 64 C67.51165674 62.88716876 66.03327725 61.760946 64.5625 60.625 C55.80413973 54.46075817 46.45568244 52.57455682 35.875 52.46875 C32.16423598 51.86373413 30.64882238 50.64440768 28 48 C26.15625 45.16015625 26.15625 45.16015625 24.5 42.0625 C22.03182301 37.62842274 19.72567283 34.3869753 16 31 C16 30.34 16 29.68 16 29 C15.43023437 28.73832031 14.86046875 28.47664063 14.2734375 28.20703125 C11.83157147 26.91057661 9.81494418 25.37293486 7.625 23.6875 C-5.89427905 14.06530882 -22.30336229 12.38890162 -38.35546875 14.42578125 C-54.32201308 17.93799006 -67.89434588 26.96718071 -77 40.5 C-82.22451867 49.47805636 -84.48882218 58.52231502 -85.99609375 68.71484375 C-87.20420296 72.66822838 -88.49548547 73.88997933 -92 76 C-95.31486021 76.29596966 -98.09348682 76.19338948 -101.34375 75.5 C-114.45617776 73.0317783 -126.80805276 76.3283593 -137.859375 83.51171875 C-148.54619814 90.94179104 -155.18252878 101.2816346 -158 114 C-158.74682747 128.33153725 -158.74682747 128.33153725 -155 142 C-154.5978125 142.89976562 -154.195625 143.79953125 -153.78125 144.7265625 C-147.78002748 156.82902792 -137.99703285 165.34248345 -125.25 169.8125 C-119.11530021 171.74422799 -113.06976097 172.14891185 -106.67138672 172.15771484 C-105.8576358 172.16279556 -105.04388489 172.16787628 -104.20547485 172.17311096 C-102.44746838 172.18376938 -100.68944873 172.19240711 -98.93142319 172.19923019 C-96.14896409 172.21106821 -93.36665678 172.23053027 -90.58425903 172.25234985 C-82.67650376 172.31382475 -74.76876832 172.36810008 -66.86083984 172.40136719 C-62.01679982 172.42228997 -57.17304414 172.45756354 -52.32916641 172.50212479 C-50.48480697 172.5162926 -48.64039731 172.52500899 -46.79598618 172.52817917 C-44.22029465 172.53307808 -41.64536196 172.55620573 -39.06982422 172.58349609 C-37.92734222 172.57898689 -37.92734222 172.57898689 -36.76177979 172.5743866 C-32.58709943 172.64020323 -29.96866824 172.93865082 -27 176 C-25.93621097 178.64839143 -25.75121965 181.16390399 -26 184 C-27.76464061 186.85993478 -28.99565697 188.49782849 -32 190 C-34.53953612 190.10860969 -37.0520598 190.15731502 -39.59228516 190.16113281 C-40.37642288 190.16609772 -41.16056061 190.17106262 -41.96846008 190.17617798 C-44.57533644 190.19083398 -47.18215162 190.19761291 -49.7890625 190.203125 C-51.60875448 190.20888064 -53.42844646 190.21463832 -55.24813843 190.22039795 C-59.0765613 190.23092245 -62.90496313 190.23675332 -66.73339844 190.24023438 C-71.59704195 190.2456739 -76.46039904 190.2695969 -81.32395363 190.29820633 C-85.09222159 190.31701601 -88.86042369 190.32204829 -92.62873459 190.32357025 C-94.41856805 190.32656429 -96.20840128 190.33448031 -97.99818802 190.34775543 C-112.0354124 190.44430151 -126.84200475 190.24085026 -139.4375 183.25 C-140.10015869 182.89856934 -140.76281738 182.54713867 -141.44555664 182.18505859 C-146.74573996 179.30208108 -151.5819861 176.1343671 -156 172 C-156.74507812 171.30777344 -157.49015625 170.61554688 -158.2578125 169.90234375 C-171.68633934 156.26897498 -176.53159667 138.91336023 -176.42016602 120.21655273 C-175.94416366 102.39459862 -168.63533582 87.50233228 -156 75 C-155.40960938 74.37609375 -154.81921875 73.7521875 -154.2109375 73.109375 C-142.4588908 61.61618395 -125.71278295 56.77259889 -109.6875 56.8125 C-107.1231435 56.84944803 -104.56346699 56.91710945 -102 57 C-101.86464844 56.29617188 -101.72929687 55.59234375 -101.58984375 54.8671875 C-98.74427596 41.81506217 -92.94067991 30.8800384 -84 21 C-83.32324219 20.23042969 -82.64648438 19.46085937 -81.94921875 18.66796875 C-61.03311995 -3.77764367 -28.33064262 -9.16766862 0 0 Z " fill="#000000" transform="translate(320,263)"/>
<path d="M0 0 C1.17512146 -0.00960754 2.35024292 -0.01921509 3.56097412 -0.02911377 C5.46100189 -0.03548859 5.46100189 -0.03548859 7.39941406 -0.04199219 C9.36010834 -0.0505423 9.36010834 -0.0505423 11.3604126 -0.05926514 C14.12764879 -0.06975684 16.8948561 -0.07561104 19.66210938 -0.07910156 C23.19029315 -0.08457381 26.71808859 -0.10858186 30.24615097 -0.13707352 C33.63056383 -0.16029811 37.01492572 -0.16215624 40.39941406 -0.16699219 C42.28729645 -0.18551239 42.28729645 -0.18551239 44.21331787 -0.20440674 C58.32274067 -0.16875574 58.32274067 -0.16875574 63.67718506 4.47161865 C68.75234164 10.06499624 69.47487699 16.07296556 69.46582031 23.34082031 C69.47010544 24.11241486 69.47439056 24.8840094 69.47880554 25.6789856 C69.48452404 27.30437239 69.48506748 28.92978476 69.48071289 30.55517578 C69.47755722 33.0219358 69.50102697 35.48748984 69.52636719 37.95410156 C69.52864111 39.54133965 69.52934324 41.12858093 69.52832031 42.71582031 C69.53753006 43.44316376 69.54673981 44.1705072 69.55622864 44.91989136 C69.50621213 50.54705119 68.67115416 56.45414398 64.71308899 60.72946167 C60.18397783 64.57977901 57.62916861 65.2896546 51.79101562 65.33813477 C51.13711853 65.34470596 50.48322144 65.35127716 49.80950928 65.35804749 C47.64155972 65.37778612 45.47367953 65.38944563 43.30566406 65.39941406 C42.56477287 65.40348959 41.82388168 65.40756512 41.06053925 65.41176414 C37.13736754 65.43262956 33.21423083 65.44692792 29.29101562 65.45629883 C25.24459493 65.46735074 21.19872607 65.5017345 17.15250015 65.54147053 C14.03659058 65.56765901 10.92081188 65.57599271 7.80480194 65.57958031 C6.31370069 65.58444234 4.82260514 65.59604552 3.33161163 65.6146183 C1.23951494 65.63905408 -0.85116268 65.63803755 -2.94335938 65.63110352 C-4.13201599 65.63696976 -5.32067261 65.642836 -6.54534912 65.64888 C-11.69995168 64.88461265 -14.76926854 62.35570377 -18.17675781 58.53613281 C-20.4174208 53.97563147 -20.41071922 50.17794704 -20.36621094 45.16113281 C-20.37003784 44.20722656 -20.37386475 43.25332031 -20.37780762 42.27050781 C-20.3805213 40.26008037 -20.37319831 38.24961729 -20.35644531 36.23925781 C-20.33502803 33.17074494 -20.3562656 30.10457329 -20.38183594 27.03613281 C-20.37919257 25.07779434 -20.37406739 23.11945731 -20.36621094 21.16113281 C-20.37430786 20.24847656 -20.38240479 19.33582031 -20.39074707 18.39550781 C-20.30921832 12.82758885 -19.58883789 9.55143315 -15.83496094 5.16113281 C-10.43966182 1.00225641 -6.68639506 0.04420132 0 0 Z M-2.83496094 17.16113281 C-2.83496094 27.39113281 -2.83496094 37.62113281 -2.83496094 48.16113281 C15.31503906 48.16113281 33.46503906 48.16113281 52.16503906 48.16113281 C52.16503906 37.93113281 52.16503906 27.70113281 52.16503906 17.16113281 C34.01503906 17.16113281 15.86503906 17.16113281 -2.83496094 17.16113281 Z " fill="#000000" transform="translate(83.8349609375,234.8388671875)"/>
<path d="M0 0 C0.92353271 0.4798938 0.92353271 0.4798938 1.86572266 0.96948242 C5.83725368 3.14510006 8.93242764 5.5561005 11.875 9 C12.5 12.5 12.5 12.5 11.875 16 C9.45628734 19.44483318 7.90816692 20.74697953 3.8125 21.75 C0.14218378 21.4833531 -2.35296273 19.79218476 -5.4375 17.875 C-24.39681079 6.13261279 -47.93457637 3.11572714 -69.5 8.02734375 C-78.11898083 10.33997977 -85.8972988 13.09062159 -93.5 17.8125 C-98.45948132 20.84108993 -101.36356072 22.13171129 -107.125 21 C-109.625 19.5 -109.625 19.5 -111.125 17 C-111.89903846 11.58173077 -111.89903846 11.58173077 -111.125 9 C-107.7372821 4.97119262 -103.87332771 2.40241224 -99.25 0 C-98.59435059 -0.34248779 -97.93870117 -0.68497559 -97.26318359 -1.0378418 C-66.68867784 -16.53685982 -30.26280844 -15.80820824 0 0 Z " fill="#000000" transform="translate(351.125,346)"/>
<path d="M0 0 C2.95827769 2.3991307 2.97457888 2.80298629 3.5 6.875 C3.36212187 10.27181576 2.95923242 11.05755423 0.875 14 C-2.58406556 16.40630647 -3.86262758 16.42575866 -8 16 C-11.15625 14.57421875 -11.15625 14.57421875 -14.5 12.6875 C-27.74123812 5.61331661 -40.84142831 4.64181661 -55.29296875 7.8671875 C-60.53642276 9.46950748 -65.08045829 11.88652027 -69.84375 14.57421875 C-73.24562402 16.1109564 -75.31483749 16.41061754 -79 16 C-82.41639845 14.0260809 -83.72268412 12.81461541 -85 9.0625 C-85 5.22093996 -84.48542836 3.93732443 -82 1 C-58.9340039 -17.39513189 -23.81328954 -15.31729602 0 0 Z " fill="#000000" transform="translate(342,378)"/>
<path d="M0 0 C1.83409969 1.66009536 2.64870732 3.06961858 3.5234375 5.37890625 C3.39556846 9.02317403 3.28377776 11.43608433 0.9609375 14.31640625 C-3.51136621 16.26587197 -7.47477451 16.10255731 -11.97265625 14.4765625 C-12.81957031 14.11433594 -13.66648437 13.75210937 -14.5390625 13.37890625 C-19.60225557 11.22107663 -23.46643764 10.21109861 -28.8125 12.28515625 C-29.65039062 12.64609375 -30.48828125 13.00703125 -31.3515625 13.37890625 C-36.08500197 15.39206115 -40.36147057 16.57694204 -45.4765625 15.37890625 C-48.54518606 12.83419403 -49.32479913 11.28948644 -49.9765625 7.37890625 C-49.34649995 3.59853097 -48.09054542 2.15899511 -45.4765625 -0.62109375 C-42.671875 -2.16796875 -42.671875 -2.16796875 -39.6015625 -3.37109375 C-38.59351563 -3.7784375 -37.58546875 -4.18578125 -36.546875 -4.60546875 C-24.22551358 -8.68123716 -10.9370954 -6.9914344 0 0 Z " fill="#000000" transform="translate(324.4765625,404.62109375)"/>
<path d="M0 0 C2.08297121 0.00315859 4.16451878 -0.02031136 6.24731445 -0.0456543 C7.56666992 -0.04629883 8.88602539 -0.04694336 10.24536133 -0.04760742 C11.4505542 -0.05058838 12.65574707 -0.05356934 13.89746094 -0.05664062 C17.44325328 0.34855483 19.30673006 1.21209787 22.15551758 3.31567383 C24.08415597 5.85796989 24.16454049 7.099124 24.03051758 10.31567383 C22.98713637 13.89298082 22.11269422 15.06564812 19.15551758 17.31567383 C16.453568 17.71390333 14.16637186 17.87767387 11.46801758 17.84692383 C10.72849854 17.85075073 9.98897949 17.85457764 9.22705078 17.85852051 C7.66705968 17.86123654 6.1070228 17.85389675 4.54711914 17.8371582 C2.16294571 17.81574056 -0.21821491 17.83696646 -2.60229492 17.86254883 C-4.12053072 17.85990549 -5.63876465 17.85478039 -7.15698242 17.84692383 C-7.86749756 17.85502075 -8.5780127 17.86311768 -9.31005859 17.87145996 C-12.70314577 17.80736604 -14.5369803 17.55051618 -17.26635742 15.46606445 C-19.32577865 12.65984815 -19.77355345 10.79119351 -19.84448242 7.31567383 C-18.64647229 4.54133458 -17.68443231 2.87333453 -15.15478516 1.19384766 C-10.38259196 -0.62012032 -5.04391561 -0.01603883 0 0 Z " fill="#000000" transform="translate(240.844482421875,178.684326171875)"/>
<path d="M0 0 C2.09171409 -0.00969958 4.1824424 -0.04073325 6.27392578 -0.07226562 C7.61115956 -0.07879702 8.94840033 -0.08404696 10.28564453 -0.08789062 C12.10298096 -0.10190918 12.10298096 -0.10190918 13.95703125 -0.11621094 C17.52031576 0.27173801 19.38856888 1.09752103 22.23095703 3.24023438 C23.79566936 6.36965903 23.92797661 9.85105661 23.23095703 13.24023438 C21.68481445 15.33862305 21.68481445 15.33862305 19.23095703 17.24023438 C16.52788211 17.62641478 14.24101336 17.77897928 11.54345703 17.73632812 C10.80393799 17.73778336 10.06441895 17.73923859 9.30249023 17.74073792 C7.74247285 17.73908152 6.18243869 17.72754903 4.62255859 17.70678711 C2.23871239 17.67782859 -0.14290894 17.68618231 -2.52685547 17.69921875 C-4.04509541 17.69298086 -5.56332835 17.68458952 -7.08154297 17.67382812 C-7.79205811 17.67676376 -8.50257324 17.6796994 -9.23461914 17.682724 C-13.33934869 17.60472299 -15.83998105 17.21266613 -18.76904297 14.24023438 C-19.83325307 11.59079464 -20.01239275 9.07747159 -19.76904297 6.24023438 C-15.19201958 -1.44262631 -7.95295998 0.02234501 0 0 Z " fill="#000000" transform="translate(135.76904296875,178.759765625)"/>
<path d="M0 0 C2.10058559 -0.00968123 4.20018223 -0.04069247 6.30053711 -0.07226562 C7.64232819 -0.07879848 8.98412625 -0.08404785 10.32592773 -0.08789062 C11.5438501 -0.09723633 12.76177246 -0.10658203 14.01660156 -0.11621094 C17.61743453 0.27393497 19.44427001 1.06035713 22.30639648 3.24023438 C24.38549838 6.35888722 24.58799023 6.77762959 24.18139648 10.24023438 C24.11694336 10.92085937 24.05249023 11.60148438 23.98608398 12.30273438 C23.0104319 15.08390355 21.86175635 15.76653945 19.30639648 17.24023438 C16.66301483 17.54437763 14.26094558 17.68474429 11.61889648 17.67382812 C10.50961792 17.6816909 10.50961792 17.6816909 9.37792969 17.68971252 C7.81796522 17.69612184 6.25795236 17.69480979 4.69799805 17.6862793 C2.31398418 17.67776148 -0.06763828 17.7065533 -2.45141602 17.73828125 C-3.96964447 17.73989328 -5.48787715 17.7393157 -7.00610352 17.73632812 C-7.71661865 17.7475621 -8.42713379 17.75879608 -9.15917969 17.77037048 C-12.60350063 17.72196395 -14.38800403 17.47824467 -17.14086914 15.33422852 C-19.28819472 12.43837766 -19.26123517 10.63708811 -19.09204102 7.14257812 C-18.48464774 4.24257299 -17.02860559 2.95714767 -14.69360352 1.24023438 C-10.41881706 -0.89715886 -4.74623133 0.01325609 0 0 Z " fill="#000000" transform="translate(82.693603515625,178.759765625)"/>
<path d="M0 0 C2.01930038 -0.00969885 4.03757924 -0.04073319 6.05664062 -0.07226562 C7.33539063 -0.07742187 8.61414063 -0.08257812 9.93164062 -0.08789062 C11.68613525 -0.10190918 11.68613525 -0.10190918 13.47607422 -0.11621094 C17.01170862 0.2798322 18.83759473 1.10744211 21.65820312 3.24023438 C23.99989076 6.75276583 24.1544399 8.10492793 23.65820312 12.24023438 C22.12890625 14.89624023 22.12890625 14.89624023 19.65820312 17.24023438 C16.81886118 17.73750395 14.5861676 17.92044753 11.75195312 17.86914062 C10.99023804 17.87155258 10.22852295 17.87396454 9.44372559 17.87644958 C7.83661685 17.87547205 6.22947407 17.86210031 4.62255859 17.8371582 C2.16582605 17.80284086 -0.28730942 17.81650132 -2.74414062 17.8359375 C-4.30795798 17.82903878 -5.87176608 17.81936614 -7.43554688 17.80664062 C-8.16793579 17.81160049 -8.90032471 17.81656036 -9.65490723 17.82167053 C-13.13921412 17.74141225 -15.01420738 17.49453872 -17.80273438 15.32983398 C-19.93446209 12.43556724 -19.91158735 10.62828935 -19.73632812 7.14257812 C-19.1279158 4.20894642 -17.73033173 2.9463307 -15.34179688 1.24023438 C-10.37289169 -0.41606735 -5.20382677 0.01514208 0 0 Z " fill="#000000" transform="translate(188.341796875,178.759765625)"/>
</svg>
