<?xml version="1.0" encoding="UTF-8"?>
<svg version="1.1" xmlns="http://www.w3.org/2000/svg" width="512" height="512">
<path d="M0 0 C134.97 0 269.94 0 409 0 C409 161.8 409 161.8 403.5 169.5 C401 172 401 172 398 173 C397.59910156 172.33355469 397.19820313 171.66710937 396.78515625 170.98046875 C383.8125445 149.94777624 366.83335743 136.42728273 343 130 C341.94039063 129.88140625 340.88078125 129.7628125 339.7890625 129.640625 C336.24295783 128.82611356 335.41460676 127.64057993 333.375 124.6875 C331.61136202 122.18280287 329.98114649 119.9815129 327.7890625 117.83203125 C326 116 326 116 326 114 C325.42894531 113.74476563 324.85789062 113.48953125 324.26953125 113.2265625 C321.75102552 111.86544237 319.84989169 110.24981974 317.6875 108.375 C299.1142725 93.39132745 275.53612369 87.42915056 251.96484375 89.46875 C227.5896323 92.44881036 205.84480749 104.23210781 190 123 C184.89449218 129.60658272 181.23220678 136.27200704 178.5 144.1875 C177.0859375 147.421875 177.0859375 147.421875 175 150 C170.83565117 151.46977018 166.96640611 151.96835751 162.59765625 152.4140625 C147.18390403 154.03519209 133.42945685 163.09447073 122 173 C121.49204895 173.68912476 120.9840979 174.37824951 120.46075439 175.08825684 C116.67602018 178.02859082 113.06796566 177.5587619 108.40136719 177.51757812 C106.9421006 177.52809204 106.9421006 177.52809204 105.45335388 177.53881836 C102.23423791 177.55643591 99.01600009 177.54475824 95.796875 177.53125 C93.5573103 177.5339447 91.31774673 177.53782693 89.07818604 177.54284668 C84.38062418 177.54874757 79.68336637 177.54016273 74.98583984 177.52148438 C68.97567773 177.49874745 62.96623219 177.51178126 56.95609665 177.53577423 C52.32855886 177.550261 47.70118954 177.54561204 43.07364655 177.53526306 C40.8585527 177.53260101 38.64344339 177.53584711 36.42836761 177.54518127 C33.32390663 177.55538803 30.22058735 177.53978495 27.11621094 177.51757812 C26.20683273 177.52567505 25.29745453 177.53377197 24.36051941 177.54211426 C17.34733352 177.44960019 12.0722354 175.69222022 6.7578125 171.03515625 C5.94957031 170.05869141 5.94957031 170.05869141 5.125 169.0625 C4.57070313 168.41410156 4.01640625 167.76570312 3.4453125 167.09765625 C-28.16372414 121.22183821 0 55.71105705 0 0 Z M33 29 C32.49773111 33.90403657 32.49773111 33.90403657 34.56860352 38.19506836 C37.8771448 40.65114284 40.1181804 40.53180822 44.21484375 40.56640625 C45.25397667 40.57570412 45.25397667 40.57570412 46.31410217 40.58518982 C47.77571206 40.59227657 49.23740287 40.58913373 50.69897461 40.57641602 C52.9277918 40.56256035 55.15239748 40.59661125 57.38085938 40.63476562 C58.80468852 40.63571705 60.22852289 40.63385671 61.65234375 40.62890625 C63.58581665 40.6299939 63.58581665 40.6299939 65.55834961 40.63110352 C69.85680989 39.84288476 71.35868788 38.41944626 74 35 C74.32908167 31.89072953 74.32908167 31.89072953 73 29 C70.29820169 26.300345 68.65322924 25.10402868 64.84960938 24.49829102 C63.11420898 24.50107056 63.11420898 24.50107056 61.34375 24.50390625 C60.07402344 24.50326172 58.80429688 24.50261719 57.49609375 24.50195312 C56.17738281 24.52193359 54.85867187 24.54191406 53.5 24.5625 C52.18128906 24.55541016 50.86257812 24.54832031 49.50390625 24.54101562 C40.46723534 24.37959792 40.46723534 24.37959792 33 29 Z M86 29 C84.67091833 31.89072953 84.67091833 31.89072953 85 35 C87.64131212 38.41944626 89.14319011 39.84288476 93.44165039 40.63110352 C94.73063232 40.63037842 96.01961426 40.62965332 97.34765625 40.62890625 C98.04136826 40.63131821 98.73508026 40.63373016 99.44981384 40.63621521 C100.90971622 40.63523968 102.36965693 40.62191574 103.8293457 40.59692383 C106.06003612 40.56253798 108.28677686 40.57629203 110.51757812 40.59570312 C111.94012097 40.58880579 113.36265363 40.5791344 114.78515625 40.56640625 C116.07301025 40.55552979 117.36086426 40.54465332 118.68774414 40.53344727 C122.05023912 40.25470437 122.05023912 40.25470437 124.42358398 38.18725586 C126.70268397 35.02503551 126.48324379 32.79691547 126 29 C124.16884793 26.38406847 123.09031634 26.03010545 120 25 C115.88840772 24.75105191 111.77677794 24.72930175 107.65820312 24.70483398 C106.3062087 24.69330761 104.95426001 24.67284477 103.60253906 24.64331055 C101.6442118 24.60054083 99.6853147 24.58705332 97.7265625 24.57421875 C96.55689941 24.55963623 95.38723633 24.54505371 94.18212891 24.5300293 C90.33925402 25.09758601 88.71832278 26.27272522 86 29 Z M139 28 C137.57958179 30.84083641 137.68547728 32.85477278 138 36 C139.49553025 38.31001144 139.49553025 38.31001144 142 40 C144.6326394 40.39842915 146.84012168 40.56215695 149.46875 40.53125 C150.186073 40.5350769 150.903396 40.53890381 151.64245605 40.54284668 C153.15536914 40.54556227 154.66832945 40.53822555 156.18115234 40.52148438 C158.49292976 40.50006551 160.80160013 40.52129351 163.11328125 40.546875 C164.58594434 40.54423166 166.0586055 40.53910653 167.53125 40.53125 C168.21989136 40.53934692 168.90853271 40.54744385 169.61804199 40.55578613 C172.96751562 40.49055965 174.73552156 40.20042673 177.43554688 38.15429688 C179.22490489 36.02754529 179.22490489 36.02754529 179.5 33 C178.89445555 29.36673332 177.8441085 28.25855675 175 26 C170.80371166 23.90185583 165.34965151 24.77311473 160.73364258 24.75976562 C158.70547061 24.75008577 156.67832358 24.71907468 154.65039062 24.6875 C153.36712891 24.68234375 152.08386719 24.6771875 150.76171875 24.671875 C149.58569092 24.6625293 148.40966309 24.65318359 147.19799805 24.64355469 C143.68036841 25.03562578 141.81310356 25.89073399 139 28 Z M192 28 C190.341404 30.80896063 190.341404 30.80896063 190 34 C191.30867064 36.94450894 192.09402863 38.54701431 195 40 C199.53127321 40.23544641 204.06636051 40.22840731 208.60302734 40.24023438 C210.85942544 40.24993306 213.11490978 40.28095187 215.37109375 40.3125 C216.80728626 40.31903097 218.24348528 40.32428107 219.6796875 40.328125 C221.64010986 40.34214355 221.64010986 40.34214355 223.64013672 40.35644531 C227.16738378 39.98224238 228.54329547 39.49791183 231 37 C232.08805146 34.6433774 232.08805146 34.6433774 232 32 C230.78778914 29.25657541 229.80918328 27.53051957 227.28295898 25.87426758 C222.23185594 23.939929 216.39950584 24.67405666 211.0625 24.6875 C209.14920898 24.66333008 209.14920898 24.66333008 207.19726562 24.63867188 C205.35358398 24.63770508 205.35358398 24.63770508 203.47265625 24.63671875 C202.35125244 24.63373779 201.22984863 24.63075684 200.07446289 24.62768555 C196.61959643 25.0460665 194.76092376 25.91029447 192 28 Z M36.0625 87.0625 C32.70593027 91.84306901 32.80911132 95.46473671 32.76171875 101.171875 C32.753647 102.08704895 32.74557526 103.0022229 32.73725891 103.94512939 C32.72341371 105.8852753 32.71269351 107.82544561 32.70483398 109.765625 C32.6876485 112.72443248 32.64376993 115.68211467 32.59960938 118.640625 C32.58947999 120.52603345 32.58096465 122.41145141 32.57421875 124.296875 C32.55671066 125.17833191 32.53920258 126.05978882 32.52116394 126.96795654 C32.5404616 132.46895142 33.20520468 135.72824163 37 140 C41.34061585 143.38935196 44.15252166 144.50226115 49.64453125 144.51757812 C50.94608154 144.53018677 52.24763184 144.54279541 53.58862305 144.55578613 C54.99658758 144.54862587 56.40454713 144.54042178 57.8125 144.53125 C59.26928974 144.53394764 60.72607772 144.53783233 62.18286133 144.54284668 C65.22917909 144.54872904 68.27502622 144.5402203 71.32128906 144.52148438 C75.21527063 144.4986947 79.1081493 144.5118247 83.00209045 144.53577423 C86.0082624 144.55026692 89.01417524 144.54561053 92.02035522 144.53526306 C93.45559827 144.53260532 94.89086527 144.53583191 96.32608032 144.54518127 C98.33587154 144.55540215 100.34574585 144.53704712 102.35546875 144.51757812 C103.49653076 144.51439575 104.63759277 144.51121338 105.81323242 144.50793457 C111.06264687 143.67123751 114.12202977 141.13898841 117.3125 137 C120.03679246 132.1568134 120.16972404 127.93863892 120.203125 122.453125 C120.20882507 121.72309265 120.21452515 120.9930603 120.22039795 120.24090576 C120.2298259 118.69772785 120.23637315 117.15453001 120.24023438 115.61132812 C120.24990997 113.27176958 120.28094045 110.93310151 120.3125 108.59375 C120.31903408 107.08854684 120.32428296 105.58333744 120.328125 104.078125 C120.3466452 103.04332001 120.3466452 103.04332001 120.36553955 101.98760986 C120.33619456 95.46376534 118.75989064 90.18797215 114.6875 85.125 C110.15879116 81.54416045 105.70958662 80.75123445 100.02978516 80.7253418 C98.87483551 80.71580978 97.71988586 80.70627777 96.52993774 80.69645691 C95.29544891 80.69736832 94.06096008 80.69827972 92.7890625 80.69921875 C91.50695892 80.69493362 90.22485535 80.6906485 88.90390015 80.68623352 C86.19565687 80.67879434 83.487544 80.67904545 80.77929688 80.68432617 C77.3273598 80.69011341 73.87596058 80.67319735 70.42411232 80.6499815 C67.10824099 80.63161024 63.7924843 80.63543138 60.4765625 80.63671875 C59.24612213 80.627509 58.01568176 80.61829926 56.74795532 80.60881042 C48.91537057 80.65082322 41.52997181 80.72214774 36.0625 87.0625 Z " fill="#000000" transform="translate(32,155)"/>
<path d="M0 0 C3.27092856 3.55935941 5.72544532 6.67191564 7.70703125 11.078125 C9.53656395 14.22244052 10.56588999 14.66259295 14.1484375 15.69140625 C16.94357836 16.21024641 19.75300186 16.60592391 22.56640625 17.01171875 C36.61180553 19.11981603 49.68796691 28.01006766 58.70703125 38.703125 C61.94664659 43.10534424 65.10059123 47.41278355 66.51171875 52.7421875 C67.47935951 56.23490986 68.13967506 58.10412885 70.70703125 60.703125 C76.63246767 62.69534533 83.0622016 62.8758141 89.24951172 63.42724609 C101.10747 64.7584097 111.28591605 72.12174817 118.8203125 81.046875 C129.12740934 95.55790161 131.06077693 110.35598287 129.70703125 127.703125 C128.88036771 132.03305456 127.62093523 135.74310657 125.70703125 139.703125 C125.35640625 140.48300781 125.00578125 141.26289063 124.64453125 142.06640625 C118.32658113 154.76811847 107.75411633 163.05424668 94.609375 167.828125 C86.60321274 170.11874639 78.72185155 170.85207694 70.43104553 170.84356689 C69.51755433 170.84653802 68.60406313 170.84950914 67.66289037 170.8525703 C64.61257183 170.86121752 61.56229271 170.86276219 58.51196289 170.86425781 C56.32016924 170.86888892 54.12837639 170.87391397 51.93658447 170.87930298 C45.9877676 170.89240353 40.038962 170.89886773 34.09013295 170.90331364 C30.36840556 170.90624904 26.64668122 170.9103548 22.92495537 170.91481781 C11.26592067 170.92848853 -0.3931076 170.93817217 -12.05214971 170.9420197 C-13.39226973 170.94246315 -14.73238975 170.94290972 -16.07250977 170.94335938 C-17.06960903 170.94369152 -17.06960903 170.94369152 -18.08685172 170.94403037 C-28.83916237 170.94797184 -39.59140497 170.96540747 -50.34368937 170.9887189 C-61.40907303 171.01251339 -72.47442096 171.02464123 -83.53983027 171.02606082 C-89.74198081 171.02710545 -95.94403538 171.03293997 -102.14616203 171.05088043 C-107.98781692 171.06744946 -113.82930461 171.06947397 -119.67097473 171.06074142 C-121.80412814 171.05997568 -123.93729087 171.06425207 -126.07042122 171.07419968 C-156.6586081 171.20837131 -156.6586081 171.20837131 -169.73046875 163.953125 C-170.39312744 163.60169434 -171.05578613 163.25026367 -171.73852539 162.88818359 C-177.03870871 160.00520608 -181.87495485 156.8374921 -186.29296875 152.703125 C-187.03804687 152.01089844 -187.783125 151.31867188 -188.55078125 150.60546875 C-201.97930809 136.97209998 -206.82456542 119.61648523 -206.71313477 100.91967773 C-206.23713241 83.09772362 -198.92830457 68.20545728 -186.29296875 55.703125 C-185.70257813 55.07921875 -185.1121875 54.4553125 -184.50390625 53.8125 C-172.59745124 42.16830171 -155.64951208 37.472456 -139.41796875 37.515625 C-137.04091928 37.55236122 -134.6690395 37.61980823 -132.29296875 37.703125 C-132.10734375 36.6821875 -132.10734375 36.6821875 -131.91796875 35.640625 C-127.89398723 16.72791183 -117.25336555 0.79878061 -101.44921875 -10.30078125 C-68.43096047 -31.18237776 -27.89774558 -27.94527155 0 0 Z M-99.60546875 65.828125 C-100.23404785 66.15256592 -100.86262695 66.47700684 -101.51025391 66.8112793 C-104.90999339 68.65831174 -107.35909607 70.31203839 -109.29296875 73.703125 C-109.8259071 77.35755939 -109.76834145 79.00834952 -107.66796875 82.078125 C-104.52023359 84.23183853 -103.08316225 84.11788424 -99.29296875 83.703125 C-96.47057533 82.517425 -93.87333901 80.99157484 -91.23046875 79.453125 C-84.11145121 75.50682165 -77.2615984 72.5641856 -69.29296875 70.703125 C-68.34550781 70.48011719 -67.39804687 70.25710938 -66.421875 70.02734375 C-43.4685553 65.44913751 -21.17507824 70.33528826 -1.36328125 82.4453125 C2.45388876 84.00908953 4.73888452 83.64609835 8.70703125 82.703125 C10.75154144 81.65938478 10.75154144 81.65938478 11.70703125 79.703125 C12.37424661 76.78871801 12.37424661 76.78871801 11.70703125 73.703125 C8.01450789 69.3398756 3.88489178 66.7975664 -1.10546875 64.203125 C-1.85030518 63.81439209 -2.5951416 63.42565918 -3.36254883 63.02514648 C-34.52005181 47.27046608 -69.27850991 50.0520543 -99.60546875 65.828125 Z M-91.29296875 99.703125 C-91.79367196 103.07669834 -91.79367196 103.07669834 -91.29296875 106.703125 C-89.30276758 109.36197101 -89.30276758 109.36197101 -86.29296875 110.703125 C-81.81153308 110.34510397 -78.67510007 109.02000251 -74.79296875 106.828125 C-59.93368327 99.16831984 -44.88410121 99.26632161 -29.22802734 104.02197266 C-25.23064647 105.42907493 -21.57813085 107.47709069 -17.94140625 109.62890625 C-14.62372531 110.9745733 -12.71188076 110.61067327 -9.29296875 109.703125 C-7.29296875 108.703125 -7.29296875 108.703125 -6.29296875 106.703125 C-5.54251369 103.28856166 -5.54251369 103.28856166 -6.29296875 99.703125 C-15.69978299 89.30611978 -32.45190787 85.56247739 -45.85546875 84.5 C-61.60630248 84.19709935 -79.82914188 88.23929813 -91.29296875 99.703125 Z M-72.29296875 124.703125 C-74.6083447 127.52020695 -74.6083447 127.52020695 -74.10546875 130.703125 C-73.15112595 134.43572015 -73.15112595 134.43572015 -70.29296875 136.703125 C-65.70531779 137.35850371 -62.56275365 136.51445402 -58.41796875 134.703125 C-52.60821258 132.24582632 -47.79616848 131.45275217 -41.75390625 133.609375 C-40.05043691 134.32987563 -38.35105434 135.06012803 -36.65625 135.80078125 C-33.38623235 137.04933344 -30.74237275 137.195897 -27.29296875 136.703125 C-24.87101948 135.16922379 -24.40567474 134.00904126 -23.41796875 131.328125 C-23.24180617 127.62871084 -23.83230283 126.51531462 -26.29296875 123.703125 C-40.57825901 114.69040551 -58.68809808 113.51917117 -72.29296875 124.703125 Z " fill="#000000" transform="translate(350.29296875,282.296875)"/>
<path d="M0 0 C1.92421669 -0.00576172 1.92421669 -0.00576172 3.88730645 -0.01163983 C5.30879614 -0.01085964 6.73028578 -0.00998086 8.15177536 -0.00901413 C9.66347891 -0.01159845 11.17518177 -0.01461179 12.68688369 -0.01801753 C16.84259244 -0.02608288 20.99828392 -0.02787684 25.15399957 -0.028615 C29.63538466 -0.03046634 34.1167608 -0.03801406 38.59814072 -0.04475021 C48.39772195 -0.05833044 58.19729909 -0.06435768 67.99688816 -0.06876087 C74.11561355 -0.07152364 80.23433736 -0.07576104 86.35306168 -0.08026505 C103.29378917 -0.09245696 120.2345154 -0.10275665 137.17524719 -0.10614014 C138.25942086 -0.1063597 139.34359452 -0.10657927 140.46062194 -0.10680549 C141.54738822 -0.10702377 142.63415449 -0.10724204 143.75385308 -0.10746694 C145.95605358 -0.1079104 148.15825407 -0.10835697 150.36045456 -0.10880661 C151.45282188 -0.10902804 152.5451892 -0.10924947 153.67065856 -0.10947761 C171.37286231 -0.11342605 189.07502491 -0.13088181 206.77721277 -0.15416613 C224.9514056 -0.17787839 243.12557778 -0.19034192 261.29978633 -0.19150805 C271.50410628 -0.19242485 281.70837259 -0.19817835 291.91267776 -0.21632767 C300.6013691 -0.23172689 309.28999023 -0.23685013 317.97869262 -0.22858956 C322.41117849 -0.22468253 326.84352296 -0.2256153 331.27599144 -0.23964691 C335.33617344 -0.2523824 339.39610774 -0.25119145 343.45628938 -0.2390562 C344.92264534 -0.2370986 346.38901883 -0.24018057 347.85535017 -0.24890056 C358.24074518 -0.30673497 367.26782871 0.02908606 375.1744194 7.38533401 C383.67493285 17.25476132 381.67832565 28.21012853 381.67832565 41.13142776 C246.70832565 41.13142776 111.73832565 41.13142776 -27.32167435 41.13142776 C-27.32167435 14.88818452 -27.32167435 14.88818452 -21.00917435 7.38142776 C-14.40911288 1.85579491 -8.56790279 0.00963816 0 0 Z " fill="#000000" transform="translate(59.32167434692383,58.86857223510742)"/>
<path d="M0 0 C134.97 0 269.94 0 409 0 C409 8.25 409 16.5 409 25 C274.03 25 139.06 25 0 25 C0 16.75 0 8.5 0 0 Z " fill="#000000" transform="translate(32,115)"/>
<path d="M0 0 C18.81 0 37.62 0 57 0 C57 10.89 57 21.78 57 33 C38.19 33 19.38 33 0 33 C0 22.11 0 11.22 0 0 Z " fill="#000000" transform="translate(80,251)"/>
</svg>
